<svg viewBox="0 0 278.96 46.27" xmlns="http://www.w3.org/2000/svg"><g fill="#010101"><path d="m68.35 15.62c0 7.84 5.83 14 13.31 14s13.28-6.11 13.28-13.95a13.3 13.3 0 1 0 -26.59 0m3.74 0c0-5.8 4.29-10.18 9.57-10.18s9.54 4.32 9.54 10.13c0 6-4.26 10.52-9.54 10.52s-9.57-4.53-9.57-10.52m28.2 0c0 7.8 5.47 13.91 13.25 13.91a13.7 13.7 0 0 0 10-4.23l-1.94-2.67a11.6 11.6 0 0 1 -8 3.47c-5.77 0-9.62-4.83-9.62-10.52s3.78-10.18 9.58-10.18a11.65 11.65 0 0 1 7.48 2.91l1.79-2.79a13.14 13.14 0 0 0 -9.42-3.51c-7.52 0-13.17 5.88-13.17 13.61m35.62 13.45h3.63v-23.33h8.87v-3.24h-21.36v3.24h8.88v23.37zm31.9 0h3.78l-9.27-26.57h-3.82l-9.31 26.61h3.74l2.56-7.65h9.76zm-7.36-22.91s.56 2.41 1 3.77l2.86 8.44h-7.86l2.9-8.44c.44-1.36 1-3.77 1-3.77zm15 9.61c0 8.14 5.76 13.79 12.72 13.79a11 11 0 0 0 8-3.24h.07s0 .57 0 1.13v1.66h3.19v-13.38h-7.52v3.27h4.14v3.84a10.48 10.48 0 0 1 -7.34 3.32c-5.42 0-9.53-4.26-9.53-10.44 0-5.69 3.66-10.25 9.75-10.25a11.76 11.76 0 0 1 7.3 2.6l1.82-2.81s-3.22-3.21-9.42-3.21c-7.56 0-13.2 6-13.2 13.72m29.62-.15c0 7.84 5.83 14 13.31 14s13.28-6.11 13.28-13.95a13.3 13.3 0 1 0 -26.59 0m3.74 0c0-5.8 4.3-10.18 9.57-10.18s9.54 4.37 9.54 10.18c0 6-4.25 10.52-9.54 10.52s-9.57-4.53-9.57-10.52m30 13.49h3.63v-17.31c0-1.5-.26-3.88-.26-3.88h.08s1.2 2.42 2.16 3.88l11.55 17.27h3.56v-26.61h-3.63v17.3c0 1.47.26 3.84.26 3.84h-.09s-1.21-2.41-2.17-3.84l-11.49-17.3h-3.59v26.6zm45 0h3.77l-9.27-26.66h-3.82l-9.32 26.61h3.74l2.57-7.65h9.75zm-7.38-23s.56 2.41 1 3.77l2.86 8.44h-7.84l2.89-8.44c.44-1.36 1-3.77 1-3.77z" transform="translate(-8.7 -2.05)"/><path d="m71.84 39.79s-.19.7-.33 1.08l-1.34 3.66h3.34l-1.33-3.66c-.14-.38-.33-1.08-.33-1.08zm1.86 5.21h-3.7l-1.12 3.12h-.58l3.28-9h.58l3.28 9h-.58z" transform="translate(-8.7 -2.05)"/><path d="m82.53 47.65a1.81 1.81 0 0 0 1.93-2 1.86 1.86 0 0 0 -1.94-2h-2.47v4zm-.09-4.48a1.63 1.63 0 0 0 1.67-1.76 1.6 1.6 0 0 0 -1.68-1.74h-2.38v3.5zm-2.93-4h2.94a2.13 2.13 0 0 1 2.22 2.26 2.07 2.07 0 0 1 -1.14 2 2.24 2.24 0 0 1 1.47 2.25 2.35 2.35 0 0 1 -2.44 2.48h-3.05z" transform="translate(-8.7 -2.05)"/><path d="m90.6 47.79a4 4 0 0 0 3.87-4.19 3.87 3.87 0 1 0 -7.73 0 4 4 0 0 0 3.86 4.19m0-8.8a4.49 4.49 0 0 1 4.4 4.6 4.44 4.44 0 1 1 -8.86 0 4.49 4.49 0 0 1 4.46-4.59" transform="translate(-8.7 -2.05)"/><path d="m96.65 39.15h.5l5 7.07c.28.42.71 1.14.71 1.14s-.06-.68-.06-1.14v-7.07h.54v9h-.5l-5-7.07c-.29-.41-.71-1.13-.71-1.13s.07.68.07 1.13v7.07h-.54v-9z" transform="translate(-8.7 -2.05)"/><path d="m96.89 37.11v9h.54v-4.22h3.35v-.51h-3.35v-3.76h3.88v-.51z"/><path d="m102.77 37.11h.54v9.01h-.54z"/><path d="m118 39a4.65 4.65 0 0 1 3.06 1l-.33.43a4.44 4.44 0 0 0 -2.73-.91 3.87 3.87 0 0 0 -3.8 4.12 3.84 3.84 0 0 0 3.8 4.14 4 4 0 0 0 3-1.48v-1.73h-1.56v-.52h2.1v4.11h-.54v-.79c0-.2 0-.39 0-.39a4 4 0 0 1 -3 1.33 4.42 4.42 0 0 1 -4.29-4.66 4.46 4.46 0 0 1 4.29-4.65" transform="translate(-8.7 -2.05)"/><path d="m114.54 37.11v9h4.72v-.51h-4.18v-8.49z"/><path d="m120.44 37.11h.54v9.01h-.54z"/><path d="m135.73 47.79a4 4 0 0 0 3.86-4.19 3.87 3.87 0 1 0 -7.73 0 4 4 0 0 0 3.87 4.19m0-8.8a4.49 4.49 0 0 1 4.43 4.6 4.44 4.44 0 1 1 -8.86 0 4.49 4.49 0 0 1 4.43-4.6" transform="translate(-8.7 -2.05)"/><path d="m133.07 37.11v9h4.72v-.51h-4.18v-8.49z"/><path d="m138.97 37.11h.54v9.01h-.54z"/><path d="m157.19 39a4.41 4.41 0 0 1 3.13 1.14l-.33.41a4.23 4.23 0 0 0 -2.79-1 3.85 3.85 0 0 0 -3.79 4.07 4 4 0 0 0 3.83 4.19 4.22 4.22 0 0 0 3-1.23l.34.39a4.59 4.59 0 0 1 -3.31 1.36 4.48 4.48 0 0 1 -4.39-4.71 4.38 4.38 0 0 1 4.31-4.62" transform="translate(-8.7 -2.05)"/><path d="m165.88 47.79a4 4 0 0 0 3.86-4.19 3.87 3.87 0 1 0 -7.73 0 4 4 0 0 0 3.87 4.19m0-8.8a4.49 4.49 0 0 1 4.43 4.6 4.44 4.44 0 1 1 -8.86 0 4.49 4.49 0 0 1 4.43-4.6" transform="translate(-8.7 -2.05)"/><path d="m171.93 39.15h.5l5 7.07c.29.42.71 1.14.71 1.14s-.07-.68-.07-1.14v-7.07h.54v9h-.5l-5-7.07c-.28-.41-.71-1.13-.71-1.13s.06.68.06 1.13v7.07h-.54v-9z" transform="translate(-8.7 -2.05)"/><path d="m180.57 46.77a3.34 3.34 0 0 0 2.35 1 1.81 1.81 0 0 0 2-1.78c0-2.56-4.49-1.85-4.49-4.67a2.47 2.47 0 0 1 2.57-2.32 3.22 3.22 0 0 1 2.23.84l-.3.47a2.87 2.87 0 0 0 -1.91-.77 1.92 1.92 0 0 0 -2.02 1.78c0 2.38 4.48 1.65 4.48 4.66a2.35 2.35 0 0 1 -2.54 2.34 3.67 3.67 0 0 1 -2.68-1.12z" transform="translate(-8.7 -2.05)"/><path d="m186.9 39.15h.54v5.9a2.74 2.74 0 1 0 5.47 0v-5.89h.54v5.92a3.27 3.27 0 0 1 -6.54 0v-5.93z" transform="translate(-8.7 -2.05)"/><path d="m186.85 37.11v9h4.72v-.51h-4.18v-8.49z"/><path d="m190.6 37.11v.51h3.27v8.49h.54v-8.49h3.27v-.51z"/><path d="m198.65 37.11h.54v9.01h-.54z"/><path d="m210.13 39.15h.5l5 7.07c.29.42.72 1.14.72 1.14s-.06-.68-.06-1.14v-7.07h.53v9h-.5l-5-7.07c-.28-.41-.71-1.13-.71-1.13s.06.68.06 1.13v7.07h-.54z" transform="translate(-8.7 -2.05)"/><path d="m222.84 39a4.65 4.65 0 0 1 3.06 1l-.33.43a4.44 4.44 0 0 0 -2.73-.91 3.87 3.87 0 0 0 -3.8 4.12 3.84 3.84 0 0 0 3.73 4.13 4 4 0 0 0 3-1.48v-1.72h-1.56v-.52h2.1v4.11h-.53v-.79c0-.2 0-.39 0-.39a4 4 0 0 1 -3 1.33 4.67 4.67 0 0 1 .06-9.32" transform="translate(-8.7 -2.05)"/><path d="m234.81 39a4.42 4.42 0 0 1 3.19 1.13l-.33.41a4.23 4.23 0 0 0 -2.79-1 3.85 3.85 0 0 0 -3.88 4.06 4 4 0 0 0 3.84 4.19 4.22 4.22 0 0 0 3-1.23l.34.39a4.59 4.59 0 0 1 -3.31 1.36 4.48 4.48 0 0 1 -4.39-4.71 4.38 4.38 0 0 1 4.33-4.6" transform="translate(-8.7 -2.05)"/><path d="m243.5 47.79a4 4 0 0 0 3.87-4.19 3.87 3.87 0 1 0 -7.73 0 4 4 0 0 0 3.86 4.19m0-8.8a4.5 4.5 0 0 1 4.44 4.6 4.44 4.44 0 1 1 -8.87 0 4.49 4.49 0 0 1 4.43-4.59" transform="translate(-8.7 -2.05)"/><path d="m250 39.15h.53l2.55 5.66c.2.44.43 1 .43 1s.22-.58.43-1l2.55-5.66h.51l.71 9h-.54l-.54-6.87c0-.44 0-1.2 0-1.2s-.26.76-.45 1.2l-2.36 5.13h-.55l-2.34-5.13c-.19-.43-.46-1.23-.46-1.23s0 .79 0 1.23l-.54 6.87h-.54z" transform="translate(-8.7 -2.05)"/><path d="m262.58 43.91a2.12 2.12 0 1 0 0-4.24h-2.32v4.24zm-2.86-4.76h2.88a2.64 2.64 0 1 1 0 5.28h-2.34v3.73h-.54z" transform="translate(-8.7 -2.05)"/><path d="m268.67 39.79s-.19.7-.33 1.08l-1.34 3.66h3.35l-1.35-3.66c-.14-.38-.33-1.08-.33-1.08zm1.86 5.21h-3.71l-1.13 3.12h-.58l3.28-9h.61l3.28 9h-.58z" transform="translate(-8.7 -2.05)"/><path d="m273.35 39.15h.51l5 7.07c.29.41.71 1.13.71 1.13s-.07-.68-.07-1.13v-7.07h.54v9h-.5l-5-7.07c-.28-.42-.71-1.13-.71-1.13s.06.68.06 1.13v7.07h-.54z" transform="translate(-8.7 -2.05)"/><path d="m284.16 44.25-3-5.1h.61l2.08 3.55c.25.44.54 1 .54 1s.28-.58.54-1l2.08-3.55h.62l-3 5.1v3.91h-.54z" transform="translate(-8.7 -2.05)"/></g><path d="m36.21 20.44a18.41 18.41 0 0 0 12.73-17.86 51.18 51.18 0 0 1 -23.79 4.73 52.69 52.69 0 0 0 6.85 5.18c-10.09 2.67-24.23 4.3-23.25 18.26a37.61 37.61 0 0 1 13.6-6.57l11.7-3.18z" fill="#f09021" transform="translate(-8.7 -2.05)"/><path d="m49.47 16.24c.34-1.68.6-3.37.82-5.07a21.26 21.26 0 0 1 -12.11 11.73 11.25 11.25 0 0 1 7 7.06 68.18 68.18 0 0 0 4.24-13.72" fill="#33478d" transform="translate(-8.7 -2.05)"/></svg>