<svg width="279" height="46" viewBox="0 0 279 46" fill="none" xmlns="http://www.w3.org/2000/svg">
<path d="M59.5884 13.34C59.5884 15.0866 59.9324 16.8161 60.6008 18.4297C61.2692 20.0433 62.2489 21.5095 63.4839 22.7445C64.7189 23.9795 66.1851 24.9592 67.7987 25.6276C69.4124 26.296 71.1418 26.64 72.8884 26.64C74.635 26.64 76.3645 26.296 77.9781 25.6276C79.5917 24.9592 81.0579 23.9795 82.2929 22.7445C83.528 21.5095 84.5076 20.0433 85.176 18.4297C85.8444 16.8161 86.1884 15.0866 86.1884 13.34C86.1884 9.81262 84.7872 6.42971 82.2929 3.93548C79.7987 1.44125 76.4158 0.0399997 72.8884 0.0399997C69.361 0.0399997 65.9781 1.44125 63.4839 3.93548C60.9897 6.42971 59.5884 9.81262 59.5884 13.34ZM63.3284 13.34C63.2693 12.0478 63.4728 10.757 63.9265 9.5456C64.3803 8.33423 65.075 7.22742 65.9685 6.29205C66.8621 5.35669 67.936 4.61219 69.1253 4.10353C70.3147 3.59487 71.5949 3.33262 72.8884 3.33262C74.182 3.33262 75.4621 3.59487 76.6515 4.10353C77.8409 4.61219 78.9148 5.35669 79.8083 6.29205C80.7019 7.22742 81.3965 8.33423 81.8503 9.5456C82.3041 10.757 82.5075 12.0478 82.4484 13.34C82.4484 19.16 78.1884 23.59 72.8884 23.59C67.5884 23.59 63.3284 19.16 63.3284 13.34ZM91.5484 13.34C91.5484 20.94 97.0184 26.87 104.788 26.87C106.656 26.8953 108.511 26.5465 110.242 25.8441C111.973 25.1416 113.546 24.0998 114.868 22.78L112.868 20.19C110.74 22.3121 107.874 23.5302 104.868 23.59C99.1084 23.59 95.2484 18.87 95.2484 13.34C95.2484 7.81 99.0484 3.44 104.808 3.44C107.555 3.47774 110.201 4.47541 112.288 6.26L114.078 3.55C114.078 3.55 110.908 0.149999 104.638 0.149999C102.899 0.112886 101.17 0.429148 99.5562 1.07964C97.9425 1.73013 96.4775 2.70133 95.25 3.93443C94.0225 5.16754 93.058 6.63691 92.4149 8.2536C91.7718 9.87029 91.4634 11.6007 91.5084 13.34M127.148 26.47H130.778V3.72H139.638V0.559999H118.318V3.72H127.188V26.47H127.148ZM159.048 26.47H162.848L153.558 0.559999H149.758L140.408 26.47H144.158L146.748 19.04H156.528L159.048 26.47ZM151.718 4.13C151.718 4.13 152.288 6.49 152.718 7.81L155.598 16.05H147.768L150.638 7.81C151.098 6.49 151.638 4.13 151.638 4.13H151.718ZM166.718 13.45C166.718 21.45 172.478 26.87 179.438 26.87C180.911 26.8961 182.373 26.6293 183.742 26.0851C185.11 25.5409 186.356 24.7302 187.408 23.7C187.408 23.7 187.348 24.28 187.348 24.8V26.41H190.518V13.41H182.968V16.57H187.178V20.31C185.235 22.3027 182.591 23.458 179.808 23.53C174.388 23.53 170.248 19.39 170.248 13.4C170.248 7.87 173.928 3.4 180.038 3.4C182.712 3.41829 185.303 4.32208 187.408 5.97L189.248 3.26C189.248 3.26 186.028 0.149999 179.808 0.149999C178.067 0.125233 176.338 0.452349 174.726 1.11174C173.114 1.77114 171.651 2.74923 170.426 3.98742C169.201 5.2256 168.238 6.69838 167.596 8.31749C166.954 9.93659 166.645 11.6687 166.688 13.41M196.338 13.3C196.338 15.0466 196.682 16.7761 197.351 18.3897C198.019 20.0033 198.999 21.4695 200.234 22.7045C201.469 23.9395 202.935 24.9192 204.549 25.5876C206.162 26.256 207.892 26.6 209.638 26.6C211.385 26.6 213.114 26.256 214.728 25.5876C216.342 24.9192 217.808 23.9395 219.043 22.7045C220.278 21.4695 221.258 20.0033 221.926 18.3897C222.594 16.7761 222.938 15.0466 222.938 13.3C222.938 9.77262 221.537 6.38971 219.043 3.89548C216.549 1.40125 213.166 0 209.638 0C206.111 0 202.728 1.40125 200.234 3.89548C197.74 6.38971 196.338 9.77262 196.338 13.3ZM200.078 13.3C200.019 12.0078 200.223 10.717 200.677 9.5056C201.13 8.29423 201.825 7.18742 202.718 6.25205C203.612 5.31669 204.686 4.57219 205.875 4.06353C207.065 3.55487 208.345 3.29262 209.638 3.29262C210.932 3.29262 212.212 3.55487 213.402 4.06353C214.591 4.57219 215.665 5.31669 216.558 6.25205C217.452 7.18742 218.147 8.29423 218.6 9.5056C219.054 10.717 219.258 12.0078 219.198 13.3C219.198 19.12 214.938 23.55 209.638 23.55C204.338 23.55 200.078 19.12 200.078 13.3ZM230.078 26.43H233.708V9.65C233.708 8.21 233.418 5.85 233.418 5.85H233.478C233.478 5.85 234.688 8.21 235.668 9.65L247.238 26.47H250.808V0.559999H247.188V17.41C247.188 18.85 247.468 21.15 247.468 21.15H247.408C246.752 19.8636 246.024 18.615 245.228 17.41L233.708 0.559999H230.138L230.078 26.47V26.43ZM275.168 26.43H278.968L269.638 0.559999H265.838L256.508 26.47H260.258L262.848 19.04H272.638L275.168 26.43ZM267.738 4.13C267.738 4.13 268.318 6.49 268.738 7.81L271.618 16.05H263.788L266.668 7.81C267.128 6.49 267.668 4.13 267.668 4.13H267.738Z" fill="white"/>
<path d="M63.0984 36.83C63.0104 37.1714 62.8968 37.5057 62.7584 37.83L61.4084 41.41H64.7484L63.4084 37.87C63.2685 37.5453 63.1516 37.2111 63.0584 36.87L63.0984 36.83ZM64.9484 41.96H61.1984L60.0484 45.01H59.4784L62.7584 36.26H63.3284L66.6184 45.01H66.0384L64.9484 41.96Z" fill="white"/>
<path d="M73.8084 44.49C74.3203 44.49 74.8112 44.2867 75.1731 43.9247C75.5351 43.5628 75.7384 43.0719 75.7384 42.56C75.7384 42.0481 75.5351 41.5572 75.1731 41.1953C74.8112 40.8333 74.3203 40.63 73.8084 40.63H71.3384V44.49H73.8084ZM73.6984 40.11C73.9259 40.1245 74.1539 40.0906 74.3673 40.0105C74.5806 39.9303 74.7746 39.8058 74.9362 39.6451C75.0979 39.4843 75.2236 39.2911 75.305 39.0782C75.3864 38.8653 75.4216 38.6376 75.4084 38.41C75.4283 38.1857 75.3988 37.9598 75.3219 37.7481C75.245 37.5365 75.1226 37.3443 74.9634 37.185C74.8042 37.0258 74.612 36.9034 74.4003 36.8265C74.1887 36.7497 73.9627 36.7201 73.7384 36.74H71.3384V40.11H73.6984ZM70.7584 36.26H73.6984C73.9889 36.245 74.2795 36.2896 74.5521 36.3911C74.8247 36.4927 75.0736 36.649 75.2835 36.8505C75.4934 37.0519 75.6598 37.2942 75.7724 37.5624C75.885 37.8307 75.9415 38.1191 75.9384 38.41C75.9643 38.8063 75.8679 39.2011 75.6622 39.5408C75.4565 39.8806 75.1516 40.1491 74.7884 40.31C75.2533 40.4645 75.6532 40.7698 75.9249 41.1773C76.1966 41.5849 76.3246 42.0715 76.2884 42.56C76.3011 42.8812 76.2472 43.2015 76.13 43.5009C76.0129 43.8002 75.8351 44.0721 75.6078 44.2994C75.3805 44.5267 75.1086 44.7045 74.8093 44.8216C74.51 44.9387 74.1896 44.9927 73.8684 44.98H70.8684V36.26H70.7584Z" fill="white"/>
<path d="M81.8684 44.66C82.9206 44.6234 83.9159 44.1735 84.6385 43.4079C85.3611 42.6422 85.7528 41.6225 85.7284 40.57C85.7551 40.0472 85.6751 39.5245 85.4934 39.0336C85.3117 38.5427 85.032 38.0939 84.6714 37.7145C84.3108 37.3351 83.8769 37.033 83.3958 36.8265C82.9148 36.6201 82.3969 36.5136 81.8734 36.5136C81.35 36.5136 80.832 36.6201 80.351 36.8265C79.87 37.033 79.436 37.3351 79.0754 37.7145C78.7148 38.0939 78.4352 38.5427 78.2535 39.0336C78.0718 39.5245 77.9918 40.0472 78.0184 40.57C77.9984 41.0924 78.0825 41.6136 78.2659 42.1031C78.4493 42.5927 78.7283 43.0409 79.0866 43.4215C79.445 43.8022 79.8755 44.1077 80.3531 44.3204C80.8306 44.533 81.3458 44.6484 81.8684 44.66ZM81.8684 36.08C82.4553 36.0813 83.0362 36.1987 83.5776 36.4254C84.1189 36.6521 84.6101 36.9837 85.0228 37.401C85.4355 37.8184 85.7615 38.3132 85.9822 38.8571C86.2028 39.401 86.3137 39.9831 86.3084 40.57C86.3369 41.1701 86.2433 41.7698 86.0333 42.3327C85.8233 42.8956 85.5012 43.41 85.0866 43.8448C84.672 44.2796 84.1734 44.6257 83.6211 44.8622C83.0688 45.0987 82.4742 45.2207 81.8734 45.2207C81.2726 45.2207 80.6781 45.0987 80.1258 44.8622C79.5735 44.6257 79.0749 44.2796 78.6603 43.8448C78.2456 43.41 77.9235 42.8956 77.7135 42.3327C77.5035 41.7698 77.4099 41.1701 77.4384 40.57C77.4278 39.9825 77.5346 39.3988 77.7527 38.8531C77.9708 38.3075 78.2958 37.8109 78.7085 37.3927C79.1212 36.9744 79.6133 36.6428 80.1559 36.4174C80.6986 36.1919 81.2808 36.0772 81.8684 36.08Z" fill="white"/>
<path d="M87.9184 36.26H88.4084L93.4084 43.17C93.6984 43.57 94.0984 44.26 94.0984 44.26C94.0984 44.26 94.0384 43.63 94.0384 43.17V36.26H94.5584V45.01H94.0384L89.0384 38.1C88.7484 37.7 88.3484 37 88.3484 37C88.3484 37 88.4084 37.64 88.4084 38.1V45.01H87.8884V36.26H87.9184Z" fill="white"/>
<path d="M96.8384 36.25V45H97.4184V40.92H100.748V40.4H97.4184V36.71H101.268V36.25H96.8384Z" fill="white"/>
<path d="M102.768 36.25H103.288V45H102.768V36.25Z" fill="white"/>
<path d="M109.278 36.08C110.363 36.0633 111.421 36.416 112.278 37.08L111.938 37.49C111.153 36.9144 110.202 36.6092 109.228 36.62C108.713 36.6221 108.203 36.7286 107.73 36.9329C107.257 37.1372 106.83 37.4352 106.475 37.8089C106.12 38.1827 105.844 38.6244 105.664 39.1075C105.484 39.5906 105.404 40.1051 105.428 40.62C105.397 41.1316 105.471 41.6441 105.644 42.1264C105.818 42.6087 106.088 43.0505 106.438 43.4249C106.788 43.7992 107.21 44.0983 107.68 44.3038C108.149 44.5093 108.656 44.6169 109.168 44.62C109.743 44.6094 110.308 44.4752 110.825 44.2268C111.343 43.9783 111.801 43.6213 112.168 43.18V41.55H110.608V41.04H112.688V45.04H112.168V43.91C111.785 44.3203 111.32 44.6454 110.804 44.8642C110.287 45.083 109.73 45.1906 109.168 45.18C108.014 45.0962 106.935 44.5765 106.149 43.7264C105.364 42.8763 104.931 41.7593 104.939 40.6019C104.946 39.4445 105.394 38.3334 106.19 37.4937C106.987 36.654 108.073 36.1486 109.228 36.08" fill="white"/>
<path d="M114.518 36.25V45H119.238V44.49H115.028V36.25H114.518Z" fill="white"/>
<path d="M120.448 36.25H120.968V45H120.448V36.25Z" fill="white"/>
<path d="M127.018 44.66C127.541 44.6484 128.056 44.533 128.534 44.3204C129.011 44.1077 129.442 43.8022 129.8 43.4215C130.159 43.0409 130.438 42.5927 130.621 42.1031C130.804 41.6136 130.888 41.0924 130.868 40.57C130.895 40.0472 130.815 39.5245 130.633 39.0336C130.452 38.5427 130.172 38.0939 129.811 37.7145C129.451 37.3351 129.017 37.033 128.536 36.8265C128.055 36.6201 127.537 36.5136 127.013 36.5136C126.49 36.5136 125.972 36.6201 125.491 36.8265C125.01 37.033 124.576 37.3351 124.215 37.7145C123.855 38.0939 123.575 38.5427 123.393 39.0336C123.212 39.5245 123.132 40.0472 123.158 40.57C123.134 41.6225 123.526 42.6422 124.248 43.4079C124.971 44.1735 125.966 44.6234 127.018 44.66ZM127.018 36.08C128.195 36.0958 129.318 36.5771 130.14 37.4186C130.963 38.2601 131.419 39.3932 131.408 40.57C131.437 41.1701 131.343 41.7698 131.133 42.3327C130.923 42.8956 130.601 43.41 130.187 43.8448C129.772 44.2796 129.273 44.6257 128.721 44.8622C128.169 45.0987 127.574 45.2206 126.973 45.2206C126.373 45.2206 125.778 45.0987 125.226 44.8622C124.673 44.6257 124.175 44.2796 123.76 43.8448C123.346 43.41 123.024 42.8956 122.814 42.3327C122.604 41.7698 122.51 41.1701 122.538 40.57C122.533 39.9831 122.644 39.401 122.865 38.8571C123.085 38.3132 123.411 37.8184 123.824 37.401C124.237 36.9837 124.728 36.6521 125.269 36.4254C125.811 36.1987 126.392 36.0813 126.978 36.08" fill="white"/>
<path d="M133.058 36.25V45H137.778V44.49H133.578V36.25H133.058Z" fill="white"/>
<path d="M138.988 36.25H139.508V45H138.988V36.25Z" fill="white"/>
<path d="M148.488 36.08C149.629 36.0274 150.745 36.422 151.598 37.18L151.258 37.58C150.467 36.9222 149.467 36.5676 148.438 36.58C147.922 36.5793 147.411 36.6838 146.936 36.8871C146.462 37.0905 146.034 37.3884 145.678 37.7627C145.323 38.1371 145.047 38.5799 144.868 39.0643C144.689 39.5487 144.611 40.0644 144.638 40.58C144.609 41.1047 144.686 41.6301 144.866 42.1239C145.045 42.6178 145.324 43.0699 145.684 43.4526C146.044 43.8353 146.479 44.1406 146.961 44.3499C147.443 44.5592 147.963 44.6681 148.488 44.67C149.608 44.6757 150.686 44.2412 151.488 43.46L151.828 43.81C151.398 44.2387 150.886 44.5764 150.323 44.8032C149.759 45.03 149.156 45.1411 148.548 45.13C147.957 45.1238 147.372 44.9989 146.83 44.7626C146.287 44.5263 145.798 44.1835 145.39 43.7545C144.983 43.3255 144.665 42.8191 144.457 42.2652C144.249 41.7113 144.154 41.1212 144.178 40.53C144.155 39.9517 144.25 39.3748 144.457 38.8343C144.664 38.2937 144.978 37.8009 145.381 37.3856C145.784 36.9704 146.268 36.6414 146.802 36.4187C147.336 36.1959 147.91 36.0841 148.488 36.09" fill="white"/>
<path d="M157.188 44.66C158.241 44.6234 159.236 44.1735 159.959 43.4079C160.681 42.6422 161.073 41.6225 161.048 40.57C161.048 39.5463 160.642 38.5645 159.918 37.8406C159.194 37.1167 158.212 36.71 157.188 36.71C156.165 36.71 155.183 37.1167 154.459 37.8406C153.735 38.5645 153.328 39.5463 153.328 40.57C153.304 41.6225 153.696 42.6422 154.418 43.4079C155.141 44.1735 156.136 44.6234 157.188 44.66ZM157.188 36.08C157.774 36.0826 158.354 36.201 158.894 36.4283C159.435 36.6556 159.925 36.9874 160.336 37.4046C160.748 37.8218 161.073 38.3162 161.293 38.8594C161.513 39.4026 161.624 39.9839 161.618 40.57C161.647 41.1701 161.553 41.7698 161.343 42.3327C161.133 42.8956 160.811 43.41 160.397 43.8448C159.982 44.2796 159.483 44.6257 158.931 44.8622C158.379 45.0987 157.784 45.2206 157.183 45.2206C156.583 45.2206 155.988 45.0987 155.436 44.8622C154.883 44.6257 154.385 44.2796 153.97 43.8448C153.556 43.41 153.234 42.8956 153.024 42.3327C152.813 41.7698 152.72 41.1701 152.748 40.57C152.743 39.9831 152.854 39.401 153.075 38.8571C153.295 38.3132 153.621 37.8184 154.034 37.401C154.447 36.9837 154.938 36.6521 155.479 36.4254C156.021 36.1987 156.601 36.0813 157.188 36.08Z" fill="white"/>
<path d="M163.228 36.26H163.748L168.748 43.17C169.038 43.57 169.438 44.26 169.438 44.26C169.438 44.26 169.378 43.63 169.378 43.17V36.26H169.898V45.01H169.408L164.408 38.1C164.128 37.7 163.718 37 163.718 37C163.718 37 163.778 37.64 163.778 38.1V45.01H163.258L163.198 36.26H163.228Z" fill="white"/>
<path d="M171.868 43.63C172.176 43.9452 172.542 44.196 172.948 44.3677C173.353 44.5394 173.788 44.6286 174.228 44.63C174.475 44.6577 174.725 44.6341 174.962 44.5605C175.2 44.487 175.419 44.3651 175.607 44.2026C175.795 44.0401 175.947 43.8405 176.054 43.6163C176.161 43.3921 176.22 43.1483 176.228 42.9C176.228 40.42 171.738 41.11 171.738 38.35C171.762 38.0274 171.85 37.7128 171.997 37.4244C172.143 37.1361 172.346 36.8797 172.593 36.6704C172.839 36.461 173.125 36.3027 173.433 36.2048C173.742 36.1069 174.066 36.0713 174.388 36.1C175.21 36.0807 176.009 36.3697 176.628 36.91L176.338 37.37C175.819 36.8946 175.142 36.6276 174.438 36.62C174.188 36.5924 173.935 36.6158 173.693 36.6886C173.452 36.7615 173.228 36.8823 173.035 37.0439C172.841 37.2055 172.683 37.4045 172.568 37.6289C172.454 37.8534 172.386 38.0986 172.368 38.35C172.368 40.65 176.858 39.96 176.858 42.9C176.854 43.2206 176.784 43.5368 176.652 43.8291C176.52 44.1214 176.33 44.3835 176.093 44.5992C175.855 44.8149 175.576 44.9795 175.273 45.0828C174.969 45.1862 174.648 45.2261 174.328 45.2C173.317 45.2089 172.342 44.8171 171.618 44.11L171.868 43.63Z" fill="white"/>
<path d="M178.198 36.26H178.718V42.01C178.696 42.3673 178.75 42.7253 178.878 43.0597C179.006 43.3942 179.204 43.6973 179.459 43.9486C179.714 44.1998 180.02 44.3934 180.356 44.5161C180.693 44.6388 181.051 44.6879 181.408 44.66C181.772 44.6859 182.138 44.6343 182.48 44.5086C182.823 44.3829 183.135 44.1859 183.396 43.9308C183.657 43.6756 183.86 43.368 183.993 43.0283C184.127 42.6886 184.186 42.3245 184.168 41.96V36.26H184.688V42.01C184.688 42.8799 184.343 43.7142 183.728 44.3293C183.113 44.9444 182.278 45.29 181.408 45.29C180.539 45.29 179.704 44.9444 179.089 44.3293C178.474 43.7142 178.128 42.8799 178.128 42.01V36.26H178.198Z" fill="white"/>
<path d="M186.838 36.25V45H191.618V44.49H187.408V36.25H186.838Z" fill="white"/>
<path d="M190.638 36.25V36.71H193.918V45H194.438V36.71H197.718V36.25H190.638Z" fill="white"/>
<path d="M198.698 36.25H199.218V45H198.698V36.25Z" fill="white"/>
<path d="M201.468 36.26H201.988L206.988 43.17C207.278 43.57 207.688 44.26 207.688 44.26C207.688 44.26 207.628 43.63 207.628 43.17V36.26H208.148V45.01H207.628L202.628 38.1C202.338 37.7 201.938 37 201.938 37C201.938 37 201.998 37.64 201.998 38.1V45.01H201.478V36.26H201.468Z" fill="white"/>
<path d="M214.188 36.08C215.29 36.0518 216.367 36.4051 217.238 37.08L216.898 37.49C216.113 36.9144 215.162 36.6092 214.188 36.62C213.673 36.6221 213.163 36.7286 212.69 36.9329C212.217 37.1372 211.79 37.4352 211.435 37.8089C211.08 38.1827 210.804 38.6244 210.624 39.1075C210.444 39.5906 210.364 40.1051 210.388 40.62C210.357 41.1316 210.43 41.6441 210.604 42.1264C210.778 42.6087 211.048 43.0505 211.398 43.4249C211.748 43.7992 212.17 44.0983 212.64 44.3038C213.109 44.5093 213.616 44.6169 214.128 44.62C214.703 44.6094 215.268 44.4752 215.785 44.2268C216.303 43.9783 216.761 43.6213 217.128 43.18V41.55H215.518V41.04H217.648V45.04H217.128V43.91C216.745 44.3203 216.28 44.6454 215.764 44.8642C215.247 45.083 214.69 45.1906 214.128 45.18C212.974 45.0962 211.895 44.5765 211.109 43.7264C210.324 42.8763 209.891 41.7593 209.899 40.6019C209.906 39.4445 210.354 38.3334 211.15 37.4937C211.947 36.654 213.033 36.1486 214.188 36.08Z" fill="white"/>
<path d="M226.168 36.08C227.308 36.0305 228.423 36.4248 229.278 37.18L228.928 37.58C228.157 36.9279 227.178 36.5732 226.168 36.58C225.652 36.5793 225.141 36.6838 224.667 36.8871C224.192 37.0905 223.764 37.3884 223.408 37.7627C223.053 38.1371 222.777 38.5799 222.598 39.0643C222.419 39.5487 222.341 40.0644 222.368 40.58C222.34 41.1052 222.419 41.6308 222.6 42.1247C222.78 42.6186 223.06 43.0706 223.421 43.4531C223.782 43.8357 224.217 44.1408 224.7 44.35C225.182 44.5592 225.702 44.6681 226.228 44.67C227.349 44.679 228.428 44.2439 229.228 43.46L229.578 43.81C229.146 44.2381 228.632 44.5753 228.067 44.802C227.502 45.0287 226.897 45.1402 226.288 45.13C225.697 45.1238 225.112 44.9989 224.57 44.7626C224.027 44.5263 223.538 44.1835 223.13 43.7545C222.723 43.3255 222.405 42.8191 222.197 42.2652C221.989 41.7113 221.894 41.1212 221.918 40.53C221.884 39.9531 221.969 39.3754 222.168 38.833C222.368 38.2907 222.677 37.7954 223.077 37.3784C223.478 36.9614 223.96 36.6317 224.493 36.41C225.027 36.1883 225.601 36.0793 226.178 36.09" fill="white"/>
<path d="M234.858 44.66C235.911 44.6234 236.906 44.1735 237.629 43.4079C238.351 42.6422 238.743 41.6225 238.718 40.57C238.745 40.0472 238.665 39.5245 238.483 39.0336C238.302 38.5427 238.022 38.0939 237.661 37.7145C237.301 37.3351 236.867 37.033 236.386 36.8265C235.905 36.6201 235.387 36.5136 234.863 36.5136C234.34 36.5136 233.822 36.6201 233.341 36.8265C232.86 37.033 232.426 37.3351 232.065 37.7145C231.705 38.0939 231.425 38.5427 231.243 39.0336C231.062 39.5245 230.982 40.0472 231.008 40.57C230.988 41.0924 231.073 41.6136 231.256 42.1031C231.439 42.5927 231.718 43.0409 232.077 43.4215C232.435 43.8022 232.865 44.1077 233.343 44.3204C233.821 44.533 234.336 44.6484 234.858 44.66ZM234.858 36.08C235.445 36.0813 236.026 36.1987 236.568 36.4254C237.109 36.6521 237.6 36.9837 238.013 37.401C238.425 37.8184 238.752 38.3132 238.972 38.8571C239.193 39.401 239.304 39.9831 239.298 40.57C239.327 41.1701 239.233 41.7698 239.023 42.3327C238.813 42.8956 238.491 43.41 238.077 43.8448C237.662 44.2796 237.163 44.6257 236.611 44.8622C236.059 45.0987 235.464 45.2207 234.863 45.2207C234.263 45.2207 233.668 45.0987 233.116 44.8622C232.563 44.6257 232.065 44.2796 231.65 43.8448C231.236 43.41 230.914 42.8956 230.704 42.3327C230.494 41.7698 230.4 41.1701 230.428 40.57C230.418 39.9825 230.525 39.3988 230.743 38.8531C230.961 38.3075 231.286 37.8109 231.698 37.3927C232.111 36.9744 232.603 36.6428 233.146 36.4174C233.689 36.1919 234.271 36.0772 234.858 36.08Z" fill="white"/>
<path d="M241.408 36.26H241.928L244.408 41.78L244.808 42.78C244.808 42.78 245.038 42.21 245.218 41.78L247.748 36.26H248.268L248.958 45.01H248.408L247.888 38.33C247.888 37.93 247.888 37.18 247.888 37.18C247.768 37.5757 247.614 37.9604 247.428 38.33L245.058 43.33H244.488L242.128 38.33C241.958 37.93 241.668 37.12 241.668 37.12C241.669 37.5241 241.649 37.9279 241.608 38.33L241.088 45.01H240.568L241.408 36.26Z" fill="white"/>
<path d="M253.918 40.86C254.467 40.86 254.994 40.6419 255.382 40.2537C255.77 39.8655 255.988 39.339 255.988 38.79C255.988 38.241 255.77 37.7145 255.382 37.3263C254.994 36.9381 254.467 36.72 253.918 36.72H251.618V40.86H253.918ZM251.098 36.26H253.978C254.323 36.2315 254.671 36.2765 254.997 36.3919C255.323 36.5073 255.621 36.6906 255.872 36.9296C256.122 37.1687 256.319 37.4581 256.45 37.7787C256.58 38.0994 256.641 38.4441 256.628 38.79C256.641 39.1401 256.581 39.489 256.452 39.8147C256.323 40.1404 256.128 40.4358 255.879 40.6821C255.63 40.9284 255.332 41.1202 255.005 41.2455C254.678 41.3708 254.328 41.4268 253.978 41.41H251.618V45.01H251.098V36.26Z" fill="white"/>
<path d="M260.028 36.83C259.935 37.1711 259.818 37.5053 259.678 37.83L258.408 41.41H261.748L260.408 37.87L260.068 36.87L260.028 36.83ZM261.868 41.96H258.128L256.968 45.01H256.408L259.688 36.26H260.268L263.548 45.01H262.968L261.868 41.96Z" fill="white"/>
<path d="M264.748 36.26H265.268L270.268 43.11C270.558 43.51 270.968 44.2 270.968 44.2C270.968 44.2 270.908 43.57 270.908 43.11V36.2H271.408V44.95H270.888L265.888 38.04C265.598 37.64 265.198 36.95 265.198 36.95C265.198 36.95 265.258 37.58 265.258 38.04V44.95H264.738V36.26H264.748Z" fill="white"/>
<path d="M275.508 41.21L272.508 36.26H273.138L275.218 39.71C275.448 40.11 275.728 40.71 275.728 40.71C275.728 40.71 276.018 40.13 276.248 39.71L278.328 36.26H278.958L275.958 41.21V45.01H275.448V41.21H275.508Z" fill="white"/>
<path d="M27.4584 18C31.1725 16.863 34.4192 14.555 36.7136 11.4207C39.008 8.28645 40.2269 4.4941 40.1884 0.610001C32.7302 3.98177 24.5862 5.56057 16.4084 5.22C18.5654 7.10089 20.8769 8.79687 23.3184 10.29C13.1784 12.88 -0.931593 14.49 0.0484071 28.08C4.1133 25.0757 8.73174 22.9041 13.6384 21.69C15.4084 21.23 23.4084 19.1 25.3284 18.64L27.4584 18Z" fill="#F09021"/>
<path d="M40.6984 13.92C41.0613 12.2697 41.3317 10.6004 41.5084 8.92C40.3837 11.5604 38.7297 13.9422 36.6486 15.9184C34.5675 17.8946 32.1034 19.4233 29.4084 20.41C31.0214 20.9434 32.4908 21.8389 33.7042 23.028C34.9175 24.2171 35.8426 25.6681 36.4084 27.27C38.3634 23.0217 39.81 18.5575 40.7184 13.97" fill="#33478D"/>
</svg>
