<svg width="30" height="36" viewBox="0 0 30 36" fill="none" xmlns="http://www.w3.org/2000/svg">
<path d="M9.44629 32.8428C8.67126 32.8429 8.00954 33.419 7.93164 34.1914L7.9209 34.3018H20.5205L20.5029 34.1865C20.3873 33.4224 19.7682 32.843 18.9893 32.8428H9.44629ZM24.6875 5.35254L23.8164 6.21582L23.749 6.28223L23.8125 6.35352C25.5666 8.32683 26.6885 10.8958 26.8516 13.708L26.8711 14.2734V14.5586C26.7631 21.3023 21.2205 26.7627 14.3809 26.7627C11.2492 26.7627 8.4058 25.621 6.20996 23.7295L6.13965 23.6689L6.07422 23.7344L5.20312 24.5977L5.12695 24.6729L5.20801 24.7441C7.10891 26.4113 9.48446 27.5341 12.042 27.9688H12.043C13.3857 28.1906 14.784 28.2182 16.1406 28.0518L16.7197 27.9688C24.1649 26.685 29.241 19.7493 28.1426 12.4453L28.0859 12.0967C27.6473 9.56027 26.5143 7.24071 24.833 5.35645L24.7627 5.27832L24.6875 5.35254ZM18.1025 20.3613C16.9464 20.5404 15.6816 20.6475 14.3809 20.6475C13.0801 20.6475 11.8154 20.5404 10.6592 20.3613L10.5 20.3359L10.5488 20.4902C10.968 21.8092 11.5073 22.9635 12.1475 23.79C12.7869 24.6156 13.5385 25.1289 14.3809 25.1289C15.1132 25.1289 15.8466 24.6705 16.5039 23.873C17.1627 23.0735 17.7569 21.9189 18.2129 20.4902L18.2627 20.3359L18.1025 20.3613ZM4.27344 18.3018C5.37224 21.0979 7.60704 23.3132 10.4268 24.4023L10.7266 24.5186L10.5449 24.2529C9.79134 23.15 9.17858 21.6863 8.74512 20.0391L8.72949 19.9814L8.67285 19.9678L8.04883 19.7979C6.62096 19.3835 5.39673 18.8367 4.42285 18.1826L4.15625 18.0039L4.27344 18.3018ZM24.376 18.1826C23.263 18.9301 21.8222 19.5382 20.125 19.9678L20.0684 19.9814L20.0527 20.0391C19.6199 21.7199 18.9713 23.1494 18.252 24.2549L18.083 24.5137L18.3721 24.4023C21.1917 23.3131 23.4256 21.0978 24.5244 18.3018L24.6416 18.0039L24.376 18.1826ZM14.3809 9.67578C12.9594 9.67579 11.5022 9.8205 10.1182 10.0732L10.0508 10.0859L10.0381 10.1523C9.78276 11.4181 9.63672 12.8276 9.63672 14.3447C9.63672 15.7541 9.78217 17.199 10.0371 18.5713L10.0498 18.6387L10.1162 18.6514C11.3928 18.9045 12.8146 19.0488 14.3447 19.0488C15.7662 19.0488 17.2234 18.9041 18.6074 18.6514L18.6748 18.6396L18.6875 18.5732C18.9428 17.3075 19.0889 15.8979 19.0889 14.3809C19.0889 12.9713 18.9435 11.5257 18.6885 10.1533L18.6758 10.0869L18.6094 10.0742L18.124 9.98438C16.9757 9.78711 15.7198 9.67578 14.3809 9.67578ZM20.4502 10.6543C20.5856 11.5402 20.66 12.4473 20.7041 13.4062L20.7393 14.3838C20.7391 15.6722 20.6307 16.925 20.4502 18.0703L20.4248 18.2295L20.5791 18.1816C21.9094 17.7661 23.0736 17.2304 23.9072 16.5957C24.7393 15.9621 25.2567 15.2169 25.2568 14.3809C25.2568 13.6541 24.7952 12.9183 23.9912 12.2578C23.1849 11.5954 22.0206 10.9962 20.5791 10.5439L20.4258 10.4961L20.4502 10.6543ZM8.18359 10.5439C6.87131 10.9415 5.72539 11.4579 4.89648 12.0742C4.1205 12.6512 3.60991 13.3255 3.51758 14.0801L3.50488 14.2324V14.458C3.54342 15.1647 4.0227 15.8806 4.82617 16.5225C5.63216 17.1663 6.77828 17.7474 8.18359 18.1816L8.33594 18.2285L8.31152 18.0703C8.13119 16.8902 8.05872 15.6728 8.02246 14.3447C8.02246 13.0553 8.1309 11.8015 8.31152 10.6553L8.33594 10.4971L8.18359 10.5439ZM10.4268 4.32324C7.60658 5.4126 5.37206 7.6635 4.27344 10.4229L4.1543 10.7227L4.42285 10.543C5.53541 9.79577 7.01121 9.18761 8.67285 8.75781L8.73047 8.74316L8.74512 8.68555C9.17839 7.00325 9.79113 5.57587 10.5449 4.47266L10.7266 4.20703L10.4268 4.32324ZM18.2529 4.47266C19.0066 5.57563 19.6202 7.03912 20.0537 8.68652L20.0684 8.74316L20.125 8.75781C21.7858 9.18736 23.2268 9.79468 24.377 10.543L24.6387 10.7139L24.5244 10.4229C23.4256 7.62692 21.1916 5.41244 18.3721 4.32324L18.0713 4.20703L18.2529 4.47266ZM14.3809 3.59668C13.6487 3.59672 12.916 4.05434 12.2588 4.85156C11.5998 5.6511 11.0049 6.8064 10.5488 8.23535L10.499 8.38867L10.6592 8.36426C11.8154 8.18515 13.0801 8.07715 14.3809 8.07715C15.6816 8.07715 16.9463 8.18516 18.1025 8.36426L18.2627 8.38867L18.2139 8.23535C17.7947 6.91638 17.2544 5.76213 16.6143 4.93555C15.9748 4.11 15.2232 3.59668 14.3809 3.59668ZM13.6465 29.7549L13.5527 29.749C12.9713 29.713 12.3968 29.6769 11.8232 29.5703H11.8213C8.90065 29.0698 6.23282 27.7824 4.10645 25.8887L4.03613 25.8262L3.96973 25.8926L3.65137 26.209C3.48089 26.3442 3.28461 26.4395 3.06055 26.4395C2.60703 26.4394 2.25391 26.0872 2.25391 25.6396C2.25396 25.4098 2.31855 25.2212 2.47754 25.0635L2.80469 24.7393L2.87207 24.6729L2.80859 24.6025C1.72644 23.3866 0.826122 22.0282 0.177734 20.5283L0.174805 20.5225L0.143555 20.4512C0.00958633 20.0881 0.197428 19.6531 0.56543 19.4707C0.945916 19.2821 1.43301 19.469 1.62891 19.8574L1.65625 19.9121H1.67383C2.22277 21.2091 3.02218 22.3969 3.92871 23.4395L3.99902 23.5195L4.07422 23.4443L4.94531 22.5811L5.01172 22.5156L4.9502 22.4443C3.04241 20.2674 1.89065 17.4489 1.89062 14.3447C1.89062 7.4941 7.46896 1.96196 14.3809 1.96191C17.5126 1.96191 20.3559 3.10456 22.5518 4.99609L22.6221 5.05566L22.6875 4.99121L23.5586 4.12793L23.6348 4.05176L23.5537 3.98047C22.4218 3.00306 21.1435 2.20657 19.7559 1.62695C19.3678 1.43264 19.1762 0.986326 19.334 0.572266C19.5301 0.188079 19.9818 -0.00197269 20.4014 0.15625L21.002 0.421875C22.3818 1.06978 23.6241 1.90322 24.7285 2.87305L24.7979 2.93457L24.8643 2.86816L25.1914 2.54492L25.1943 2.54102C25.4842 2.22166 25.9996 2.19086 26.3203 2.50879L26.3242 2.5127C26.6258 2.78199 26.6715 3.24607 26.4121 3.56445L26.3564 3.62598C26.3387 3.64357 26.3298 3.65266 26.3252 3.65723C26.3229 3.65948 26.3209 3.66057 26.3203 3.66113V3.66211L25.9941 3.98535L25.9268 4.05273L25.9893 4.12305C29.8107 8.41215 31.0724 14.6669 28.6934 20.3135C26.6392 25.1724 22.2431 28.6383 17.0176 29.5332C16.4367 29.6052 15.859 29.6771 15.2822 29.7129L15.1885 29.7188V31.2441H18.9893C20.7125 31.2443 22.1182 32.6392 22.1182 34.3457V34.5615C22.1179 35.2967 21.5103 35.9004 20.7666 35.9004H7.5957C6.89008 35.9002 6.28148 35.2982 6.28125 34.5615V34.3809C6.28146 32.6744 7.68683 31.2793 9.41016 31.2793H13.6465V29.7549Z" fill="#FF8800" stroke="white" stroke-width="0.2"/>
</svg>
