<svg width="38" height="38" viewBox="0 0 38 38" fill="none" xmlns="http://www.w3.org/2000/svg">
<g clip-path="url(#clip0_83_539)">
<path d="M36.091 36.734V13.3129C36.091 12.9634 35.8076 12.6799 35.458 12.6799H29.128C28.7784 12.6799 28.495 12.9634 28.495 13.3129V36.734H27.229V22.1749C27.229 21.8254 26.9456 21.5419 26.596 21.5419H20.266C19.9164 21.5419 19.633 21.8254 19.633 22.1749V36.734H18.367V15.8449C18.367 15.4954 18.0836 15.2119 17.734 15.2119H11.404C11.0544 15.2119 10.771 15.4954 10.771 15.8449V36.734H9.50496V24.707C9.50496 24.3574 9.22154 24.074 8.87196 24.074H2.54195C2.19238 24.074 1.90895 24.3574 1.90895 24.707V36.734H0.00994873V38H37.99V36.734H36.091ZM8.23896 36.734H3.17495V25.34H8.23896V36.734ZM17.101 36.734H12.037V16.4779H17.101V36.734ZM25.963 36.734H20.899V22.8079H25.963V36.734ZM34.825 36.734H29.761V13.9459H34.825V36.734Z" fill="#FF8800"/>
<path d="M3.96137 17.2192C4.47916 17.5615 5.08621 17.744 5.70695 17.744C7.4549 17.7439 8.87187 16.3268 8.87179 14.5788C8.87179 13.9583 8.68933 13.3514 8.34719 12.8338L12.8276 8.35276C13.3411 8.6964 13.9447 8.88053 14.5626 8.88195C14.749 8.88203 14.9349 8.86573 15.1184 8.83321C15.7206 8.72766 16.2789 8.44866 16.725 8.03057L20.4806 10.9177C19.8537 12.5494 20.6683 14.3804 22.3 15.0072C23.9318 15.634 25.7627 14.8194 26.3895 13.1877C26.7572 12.2308 26.6385 11.1551 26.0712 10.3011L30.5503 5.82203C32.0123 6.78973 33.982 6.38896 34.9496 4.92696C35.9173 3.46497 35.5165 1.49531 34.0546 0.527685C32.5926 -0.440015 30.6229 -0.0392465 29.6553 1.42275C28.9522 2.485 28.9522 3.86471 29.6553 4.92696L25.1762 9.40608C23.9216 8.57685 22.2568 8.74483 21.1933 9.80803C21.1813 9.82006 21.1743 9.83399 21.1629 9.84538L17.4618 7.00067C18.1727 5.40377 17.4545 3.53294 15.8576 2.822C14.2607 2.11106 12.3899 2.82928 11.6789 4.42618C11.2392 5.4139 11.3341 6.55781 11.9306 7.45952L7.45213 11.9386C5.99393 10.9747 4.03044 11.3753 3.06646 12.8335C2.10256 14.2917 2.50317 16.2552 3.96137 17.2192ZM32.293 1.28594C33.3418 1.28594 34.192 2.13614 34.192 3.18494C34.192 4.23375 33.3418 5.08395 32.293 5.08395C31.2442 5.08395 30.394 4.23375 30.394 3.18494C30.394 2.13614 31.2442 1.28594 32.293 1.28594ZM22.0875 10.7046C22.4437 10.3481 22.927 10.1479 23.431 10.148C24.4798 10.1478 25.3301 10.9979 25.3302 12.0467C25.3303 12.5507 25.13 13.034 24.7736 13.3902C24.0219 14.1067 22.8401 14.1067 22.0884 13.3902C21.3465 12.6488 21.3462 11.4464 22.0875 10.7046ZM13.0135 4.62779L13.0137 4.62755C13.3015 4.21405 13.7427 3.93276 14.2392 3.84643C14.3494 3.82752 14.461 3.81802 14.5728 3.81794C14.9613 3.81834 15.3404 3.93837 15.6584 4.16166C16.5174 4.76333 16.7261 5.94744 16.1245 6.8065C15.5228 7.66556 14.3387 7.87422 13.4796 7.27263C12.6206 6.67096 12.4119 5.48685 13.0135 4.62779ZM4.36348 13.2366C4.3638 13.2363 4.36404 13.236 4.36435 13.2357C5.10623 12.4943 6.30869 12.4945 7.05018 13.2364C7.79166 13.9782 7.79142 15.1807 7.04954 15.9222C6.29785 16.6387 5.11604 16.6387 4.36435 15.9222C3.62248 15.1808 3.62216 13.9784 4.36348 13.2366Z" fill="#FF8800"/>
</g>
<defs>
<clipPath id="clip0_83_539">
<rect width="38" height="38" fill="white"/>
</clipPath>
</defs>
</svg>
