<svg width="33" height="35" viewBox="0 0 33 35" fill="none" xmlns="http://www.w3.org/2000/svg">
<mask id="path-1-inside-1_83_545" fill="white">
<path d="M31.8508 33.3517H31.8361V13.1058C31.8361 13.0767 31.8361 13.0475 31.8313 13.0188C31.8313 13.014 31.8313 13.0088 31.8313 13.004C31.8265 12.9848 31.8265 12.9605 31.8217 12.9413C31.8217 12.9317 31.8169 12.917 31.8121 12.9074C31.8073 12.893 31.8073 12.8786 31.8025 12.8639C31.7977 12.8495 31.7925 12.8351 31.7877 12.8203C31.783 12.8107 31.783 12.8012 31.7782 12.7916C31.7734 12.7768 31.7638 12.7624 31.759 12.748C31.7542 12.7381 31.749 12.7285 31.7442 12.7189C31.7346 12.7045 31.7298 12.6898 31.7203 12.6802C31.7155 12.6706 31.7107 12.661 31.7055 12.6514C31.6959 12.6415 31.6911 12.6271 31.6815 12.6175C31.6719 12.6079 31.6671 12.5979 31.6572 12.5883C31.6476 12.5788 31.6428 12.5692 31.6332 12.5596C31.6236 12.5496 31.6137 12.5352 31.6041 12.5256C31.5993 12.5161 31.5897 12.5109 31.5801 12.5061C31.5701 12.4965 31.5558 12.4821 31.5462 12.4725C31.5414 12.4674 31.5318 12.4626 31.5218 12.453C31.5074 12.4434 31.4931 12.4338 31.4835 12.4242C31.4735 12.4191 31.4639 12.4143 31.4591 12.4095C31.4447 12.3999 31.43 12.3903 31.4204 12.3855C31.406 12.3807 31.3964 12.3707 31.3817 12.3659C31.3721 12.3611 31.3577 12.3564 31.3481 12.3516C31.3286 12.342 31.3094 12.3372 31.2898 12.332C31.285 12.332 31.2802 12.3272 31.2707 12.3272C31.2463 12.3176 31.2175 12.3128 31.1932 12.308H31.1884L27.1516 11.462V3.14718C27.1516 3.11804 27.1516 3.08927 27.1468 3.06014C27.1468 3.05534 27.1468 3.05055 27.142 3.04059C27.1372 3.02141 27.1372 2.99707 27.1324 2.97789C27.1277 2.9635 27.1277 2.95355 27.1229 2.94396C27.1181 2.92957 27.1181 2.91519 27.1133 2.90523C27.1085 2.89085 27.1033 2.87646 27.0985 2.86171C27.0937 2.85212 27.0937 2.84253 27.0889 2.83294C27.0841 2.81819 27.0745 2.8038 27.0697 2.78462C27.065 2.77503 27.0598 2.76508 27.055 2.76028C27.0454 2.7459 27.0406 2.73151 27.031 2.71676C27.0262 2.70717 27.0214 2.69758 27.0163 2.69279C27.0067 2.68283 27.0019 2.66844 26.9923 2.65885C26.9827 2.64927 26.9779 2.63968 26.968 2.62972C26.9584 2.62013 26.9536 2.61054 26.944 2.60095C26.9344 2.59099 26.9244 2.5814 26.9148 2.56702C26.9053 2.55743 26.9005 2.55263 26.8909 2.54747C26.8809 2.53788 26.8665 2.5235 26.8569 2.51391C26.8473 2.50911 26.8426 2.50432 26.8326 2.49436C26.8182 2.48477 26.8086 2.47518 26.7942 2.46559C26.7843 2.4608 26.7747 2.45563 26.7651 2.45084C26.7507 2.44125 26.7408 2.43645 26.7264 2.42686C26.712 2.42207 26.7024 2.41211 26.6876 2.40732C26.6781 2.40252 26.6685 2.39773 26.6537 2.39293C26.6345 2.38334 26.6102 2.37855 26.591 2.36896C26.5862 2.36896 26.5814 2.3638 26.5766 2.3638C26.5475 2.35421 26.5184 2.34941 26.4896 2.33982L15.3467 0.00958939C15.3223 0.00479471 15.2984 0 15.2788 0C15.274 0 15.2692 0 15.2644 0C15.25 0 15.2353 0 15.2209 0C15.2065 0 15.1918 0 15.1822 0C15.1822 0 15.1822 0 15.1774 0C15.163 0 15.153 0 15.1386 0C15.1243 0 15.1095 0 15.0999 0C15.0807 0 15.066 0.00479471 15.0468 0.00958939C15.0372 0.00958939 15.0276 0.00958939 15.0228 0.0143842H15.0177H15.0129L5.84243 1.80798C5.81809 1.81277 5.79891 1.81757 5.77457 1.82236C5.76977 1.82236 5.76498 1.82236 5.76018 1.82752C5.741 1.83232 5.72146 1.84191 5.70228 1.8467C5.69748 1.8467 5.69269 1.8515 5.68273 1.8515C5.66835 1.85629 5.65396 1.86588 5.64437 1.87068C5.53778 1.92416 5.44595 1.99165 5.37366 2.07869C5.37366 2.08349 5.36849 2.08349 5.36849 2.08828C5.3637 2.09824 5.3589 2.10304 5.34931 2.11263C5.2962 2.18492 5.25268 2.26716 5.22354 2.35421C5.22354 2.359 5.21875 2.3638 5.21875 2.3638C5.21396 2.37375 5.21395 2.38334 5.20916 2.39293C5.20437 2.40732 5.19957 2.42686 5.19478 2.44125V2.45563C5.18961 2.47997 5.18482 2.49915 5.18482 2.5235V2.53309C5.18482 2.55743 5.18002 2.5814 5.18002 2.60574V9.00632L1.98453 9.6348C1.96056 9.63959 1.93621 9.64439 1.91224 9.65398C1.90744 9.65398 1.90744 9.65398 1.90265 9.65877C1.87831 9.66357 1.85913 9.67352 1.83479 9.68311C1.82999 9.68311 1.8252 9.68791 1.8204 9.68791C1.80565 9.6927 1.79127 9.70229 1.77688 9.70709C1.68025 9.7554 1.59321 9.82327 1.52055 9.90072C1.51575 9.90552 1.51096 9.9151 1.50137 9.9199C1.49657 9.92469 1.49141 9.93428 1.48662 9.94424C1.42392 10.0261 1.3756 10.1228 1.34646 10.2245C1.34167 10.2437 1.33687 10.2581 1.33208 10.2777V10.2872C1.32728 10.3116 1.32249 10.3356 1.32249 10.3599V10.3647C1.31769 10.3887 1.31769 10.4178 1.31769 10.4422V33.3565H1.30294C0.84855 33.3565 0.481201 33.7238 0.481201 34.1782C0.481201 34.6326 0.84855 35 1.30294 35H31.8556C32.31 35 32.6774 34.6326 32.6774 34.1782C32.6726 33.719 32.3052 33.3517 31.8508 33.3517ZM14.9019 10.5532C14.9646 10.5775 15.0372 10.5919 15.1047 10.5967L30.1926 13.763V16.5089L11.3294 12.5496V9.80372L14.9019 10.5532ZM30.1926 20.7825L11.3294 16.8232V13.9323L30.1926 17.8917V20.7825ZM30.1926 22.1652V25.0269L11.3294 21.0968V18.2059L30.1926 22.1652ZM11.3294 22.4791L30.1926 26.4145V29.3053L11.3294 25.3751V22.4791ZM30.1926 30.688V33.3517H11.3294V26.7527L30.1926 30.688ZM15.9943 9.10295V1.82236L25.5034 3.80922V11.0994L15.9943 9.10295ZM6.81392 3.28254L14.3508 1.80798V8.75958L10.6766 7.99095C10.667 7.99095 10.6526 7.98615 10.6427 7.98615C10.6331 7.98615 10.6187 7.98136 10.6091 7.98136C10.5896 7.97656 10.5704 7.97656 10.5508 7.97656C10.5413 7.97656 10.5317 7.97656 10.5221 7.97656C10.4977 7.97656 10.4738 7.97656 10.4494 7.97656C10.4446 7.97656 10.4398 7.97656 10.435 7.97656C10.4059 7.98136 10.372 7.98136 10.3432 7.99095L6.81392 8.68249V3.28254ZM2.95638 11.1138L6.0309 10.5096C6.11315 10.5049 6.1954 10.4905 6.26769 10.4613L9.68558 9.78934V12.5448L4.15027 13.6908C3.78292 13.7678 3.55093 14.1256 3.62358 14.4882C3.69108 14.8072 3.97139 15.0296 4.28562 15.0296C4.32915 15.0296 4.37746 15.0248 4.42098 15.0152L9.68079 13.9275V16.8184L4.14547 17.964C3.77812 18.0414 3.54613 18.3992 3.61879 18.7617C3.68628 19.0808 3.96659 19.3032 4.28083 19.3032C4.32435 19.3032 4.37267 19.2984 4.41619 19.2888L9.67599 18.2011V21.0968L4.14068 22.2423C3.77333 22.3198 3.54134 22.6775 3.614 23.0401C3.68149 23.3591 3.9618 23.5815 4.27603 23.5815C4.31956 23.5815 4.36787 23.5767 4.41139 23.5671L9.6712 22.4791V25.3703L4.13588 26.5159C3.76853 26.5933 3.53654 26.9511 3.60883 27.3137C3.6767 27.6327 3.957 27.8551 4.27124 27.8551C4.31476 27.8551 4.36308 27.8503 4.4066 27.8403L9.68558 26.7527V33.3517H2.95638V11.1138Z"/>
</mask>
<path d="M31.8508 33.3517H31.8361V13.1058C31.8361 13.0767 31.8361 13.0475 31.8313 13.0188C31.8313 13.014 31.8313 13.0088 31.8313 13.004C31.8265 12.9848 31.8265 12.9605 31.8217 12.9413C31.8217 12.9317 31.8169 12.917 31.8121 12.9074C31.8073 12.893 31.8073 12.8786 31.8025 12.8639C31.7977 12.8495 31.7925 12.8351 31.7877 12.8203C31.783 12.8107 31.783 12.8012 31.7782 12.7916C31.7734 12.7768 31.7638 12.7624 31.759 12.748C31.7542 12.7381 31.749 12.7285 31.7442 12.7189C31.7346 12.7045 31.7298 12.6898 31.7203 12.6802C31.7155 12.6706 31.7107 12.661 31.7055 12.6514C31.6959 12.6415 31.6911 12.6271 31.6815 12.6175C31.6719 12.6079 31.6671 12.5979 31.6572 12.5883C31.6476 12.5788 31.6428 12.5692 31.6332 12.5596C31.6236 12.5496 31.6137 12.5352 31.6041 12.5256C31.5993 12.5161 31.5897 12.5109 31.5801 12.5061C31.5701 12.4965 31.5558 12.4821 31.5462 12.4725C31.5414 12.4674 31.5318 12.4626 31.5218 12.453C31.5074 12.4434 31.4931 12.4338 31.4835 12.4242C31.4735 12.4191 31.4639 12.4143 31.4591 12.4095C31.4447 12.3999 31.43 12.3903 31.4204 12.3855C31.406 12.3807 31.3964 12.3707 31.3817 12.3659C31.3721 12.3611 31.3577 12.3564 31.3481 12.3516C31.3286 12.342 31.3094 12.3372 31.2898 12.332C31.285 12.332 31.2802 12.3272 31.2707 12.3272C31.2463 12.3176 31.2175 12.3128 31.1932 12.308H31.1884L27.1516 11.462V3.14718C27.1516 3.11804 27.1516 3.08927 27.1468 3.06014C27.1468 3.05534 27.1468 3.05055 27.142 3.04059C27.1372 3.02141 27.1372 2.99707 27.1324 2.97789C27.1277 2.9635 27.1277 2.95355 27.1229 2.94396C27.1181 2.92957 27.1181 2.91519 27.1133 2.90523C27.1085 2.89085 27.1033 2.87646 27.0985 2.86171C27.0937 2.85212 27.0937 2.84253 27.0889 2.83294C27.0841 2.81819 27.0745 2.8038 27.0697 2.78462C27.065 2.77503 27.0598 2.76508 27.055 2.76028C27.0454 2.7459 27.0406 2.73151 27.031 2.71676C27.0262 2.70717 27.0214 2.69758 27.0163 2.69279C27.0067 2.68283 27.0019 2.66844 26.9923 2.65885C26.9827 2.64927 26.9779 2.63968 26.968 2.62972C26.9584 2.62013 26.9536 2.61054 26.944 2.60095C26.9344 2.59099 26.9244 2.5814 26.9148 2.56702C26.9053 2.55743 26.9005 2.55263 26.8909 2.54747C26.8809 2.53788 26.8665 2.5235 26.8569 2.51391C26.8473 2.50911 26.8426 2.50432 26.8326 2.49436C26.8182 2.48477 26.8086 2.47518 26.7942 2.46559C26.7843 2.4608 26.7747 2.45563 26.7651 2.45084C26.7507 2.44125 26.7408 2.43645 26.7264 2.42686C26.712 2.42207 26.7024 2.41211 26.6876 2.40732C26.6781 2.40252 26.6685 2.39773 26.6537 2.39293C26.6345 2.38334 26.6102 2.37855 26.591 2.36896C26.5862 2.36896 26.5814 2.3638 26.5766 2.3638C26.5475 2.35421 26.5184 2.34941 26.4896 2.33982L15.3467 0.00958939C15.3223 0.00479471 15.2984 0 15.2788 0C15.274 0 15.2692 0 15.2644 0C15.25 0 15.2353 0 15.2209 0C15.2065 0 15.1918 0 15.1822 0C15.1822 0 15.1822 0 15.1774 0C15.163 0 15.153 0 15.1386 0C15.1243 0 15.1095 0 15.0999 0C15.0807 0 15.066 0.00479471 15.0468 0.00958939C15.0372 0.00958939 15.0276 0.00958939 15.0228 0.0143842H15.0177H15.0129L5.84243 1.80798C5.81809 1.81277 5.79891 1.81757 5.77457 1.82236C5.76977 1.82236 5.76498 1.82236 5.76018 1.82752C5.741 1.83232 5.72146 1.84191 5.70228 1.8467C5.69748 1.8467 5.69269 1.8515 5.68273 1.8515C5.66835 1.85629 5.65396 1.86588 5.64437 1.87068C5.53778 1.92416 5.44595 1.99165 5.37366 2.07869C5.37366 2.08349 5.36849 2.08349 5.36849 2.08828C5.3637 2.09824 5.3589 2.10304 5.34931 2.11263C5.2962 2.18492 5.25268 2.26716 5.22354 2.35421C5.22354 2.359 5.21875 2.3638 5.21875 2.3638C5.21396 2.37375 5.21395 2.38334 5.20916 2.39293C5.20437 2.40732 5.19957 2.42686 5.19478 2.44125V2.45563C5.18961 2.47997 5.18482 2.49915 5.18482 2.5235V2.53309C5.18482 2.55743 5.18002 2.5814 5.18002 2.60574V9.00632L1.98453 9.6348C1.96056 9.63959 1.93621 9.64439 1.91224 9.65398C1.90744 9.65398 1.90744 9.65398 1.90265 9.65877C1.87831 9.66357 1.85913 9.67352 1.83479 9.68311C1.82999 9.68311 1.8252 9.68791 1.8204 9.68791C1.80565 9.6927 1.79127 9.70229 1.77688 9.70709C1.68025 9.7554 1.59321 9.82327 1.52055 9.90072C1.51575 9.90552 1.51096 9.9151 1.50137 9.9199C1.49657 9.92469 1.49141 9.93428 1.48662 9.94424C1.42392 10.0261 1.3756 10.1228 1.34646 10.2245C1.34167 10.2437 1.33687 10.2581 1.33208 10.2777V10.2872C1.32728 10.3116 1.32249 10.3356 1.32249 10.3599V10.3647C1.31769 10.3887 1.31769 10.4178 1.31769 10.4422V33.3565H1.30294C0.84855 33.3565 0.481201 33.7238 0.481201 34.1782C0.481201 34.6326 0.84855 35 1.30294 35H31.8556C32.31 35 32.6774 34.6326 32.6774 34.1782C32.6726 33.719 32.3052 33.3517 31.8508 33.3517ZM14.9019 10.5532C14.9646 10.5775 15.0372 10.5919 15.1047 10.5967L30.1926 13.763V16.5089L11.3294 12.5496V9.80372L14.9019 10.5532ZM30.1926 20.7825L11.3294 16.8232V13.9323L30.1926 17.8917V20.7825ZM30.1926 22.1652V25.0269L11.3294 21.0968V18.2059L30.1926 22.1652ZM11.3294 22.4791L30.1926 26.4145V29.3053L11.3294 25.3751V22.4791ZM30.1926 30.688V33.3517H11.3294V26.7527L30.1926 30.688ZM15.9943 9.10295V1.82236L25.5034 3.80922V11.0994L15.9943 9.10295ZM6.81392 3.28254L14.3508 1.80798V8.75958L10.6766 7.99095C10.667 7.99095 10.6526 7.98615 10.6427 7.98615C10.6331 7.98615 10.6187 7.98136 10.6091 7.98136C10.5896 7.97656 10.5704 7.97656 10.5508 7.97656C10.5413 7.97656 10.5317 7.97656 10.5221 7.97656C10.4977 7.97656 10.4738 7.97656 10.4494 7.97656C10.4446 7.97656 10.4398 7.97656 10.435 7.97656C10.4059 7.98136 10.372 7.98136 10.3432 7.99095L6.81392 8.68249V3.28254ZM2.95638 11.1138L6.0309 10.5096C6.11315 10.5049 6.1954 10.4905 6.26769 10.4613L9.68558 9.78934V12.5448L4.15027 13.6908C3.78292 13.7678 3.55093 14.1256 3.62358 14.4882C3.69108 14.8072 3.97139 15.0296 4.28562 15.0296C4.32915 15.0296 4.37746 15.0248 4.42098 15.0152L9.68079 13.9275V16.8184L4.14547 17.964C3.77812 18.0414 3.54613 18.3992 3.61879 18.7617C3.68628 19.0808 3.96659 19.3032 4.28083 19.3032C4.32435 19.3032 4.37267 19.2984 4.41619 19.2888L9.67599 18.2011V21.0968L4.14068 22.2423C3.77333 22.3198 3.54134 22.6775 3.614 23.0401C3.68149 23.3591 3.9618 23.5815 4.27603 23.5815C4.31956 23.5815 4.36787 23.5767 4.41139 23.5671L9.6712 22.4791V25.3703L4.13588 26.5159C3.76853 26.5933 3.53654 26.9511 3.60883 27.3137C3.6767 27.6327 3.957 27.8551 4.27124 27.8551C4.31476 27.8551 4.36308 27.8503 4.4066 27.8403L9.68558 26.7527V33.3517H2.95638V11.1138Z" fill="#FF8800" stroke="white" stroke-width="0.2" mask="url(#path-1-inside-1_83_545)"/>
</svg>
