<svg width="40" height="39" viewBox="0 0 40 39" fill="none" xmlns="http://www.w3.org/2000/svg">
<path fill-rule="evenodd" clip-rule="evenodd" d="M19.9913 11.2105C24.1451 11.2105 27.6413 14.1585 28.462 18.0691C28.5636 18.5533 29.0386 18.8635 29.5228 18.7619C30.007 18.6602 30.3172 18.1853 30.2156 17.701C29.2237 12.9749 25.0071 9.4187 19.9913 9.4187C14.978 9.4187 10.895 12.8624 9.80736 17.4658C9.69354 17.9473 9.99171 18.4299 10.4732 18.5437C10.9548 18.6574 11.4374 18.3594 11.5511 17.8778C12.4538 14.0577 15.8347 11.2105 19.9913 11.2105Z" fill="#FF8800"/>
<path fill-rule="evenodd" clip-rule="evenodd" d="M24.5655 2.2465C24.5655 1.00531 23.5601 0 22.319 0H20.0088C19.5139 0 19.1128 0.401113 19.1128 0.895912C19.1128 1.3907 19.5139 1.79182 20.0088 1.79182H22.319C22.5706 1.79182 22.7736 1.99491 22.7736 2.2465V5.87178C22.7736 6.28289 23.0534 6.64124 23.4523 6.74094C24.0465 6.88951 24.5667 7.05398 25.061 7.24881C25.6312 7.47358 26.1791 7.74358 26.7767 8.08767C27.1338 8.29327 27.5851 8.2288 27.8704 7.93141L30.3736 5.32158C30.3739 5.32127 30.3742 5.32097 30.3745 5.32066C30.5489 5.14126 30.8342 5.13915 31.0083 5.30751L31.0114 5.31049L34.3504 8.50741C34.5296 8.68175 34.5316 8.96688 34.3633 9.14098L34.3609 9.14346L31.8552 11.7558C31.5754 12.0475 31.5256 12.4904 31.7335 12.837C32.3665 13.8918 32.5982 14.8328 32.9313 16.1858C32.9481 16.254 32.9652 16.3233 32.9826 16.3937C33.0814 16.7938 33.4403 17.0749 33.8524 17.0749H37.4776C37.7292 17.0749 37.9323 17.278 37.9323 17.5296V22.15C37.9323 22.6449 38.3334 23.0459 38.8282 23.0459C39.323 23.0459 39.7242 22.6449 39.7242 22.15V17.5296C39.7242 16.2884 38.7188 15.2831 37.4776 15.2831H34.5543C34.3192 14.3406 34.0704 13.4504 33.6037 12.5213L35.6516 10.3863C35.6521 10.3859 35.6525 10.3854 35.653 10.3849C36.5137 9.49307 36.4801 8.07401 35.5946 7.21801L35.5915 7.21498L35.5915 7.21506L32.2519 4.01754C31.36 3.15717 29.9412 3.19085 29.0854 4.07623L29.0829 4.07873L27.0532 6.19492C26.6111 5.96355 26.1736 5.76139 25.7182 5.58186C25.346 5.43517 24.9658 5.30512 24.5655 5.18698V2.2465Z" fill="#FF8800"/>
<path fill-rule="evenodd" clip-rule="evenodd" d="M15.1586 2.2465C15.1586 1.00531 16.164 0 17.4052 0H19.7154C20.2102 0 20.6113 0.401113 20.6113 0.895912C20.6113 1.3907 20.2102 1.79182 19.7154 1.79182H17.4052C17.1535 1.79182 16.9505 1.99491 16.9505 2.2465V5.87178C16.9505 6.28289 16.6707 6.64124 16.2719 6.74094C15.6776 6.88951 15.1574 7.05398 14.6631 7.24881C14.0929 7.47358 13.545 7.74358 12.9474 8.08767C12.5903 8.29327 12.1391 8.2288 11.8538 7.93141L9.35054 5.32158C9.35022 5.32127 9.34991 5.32097 9.3496 5.32066C9.17527 5.14126 8.88998 5.13915 8.7158 5.30751L8.71278 5.31049L5.37377 8.50741C5.19455 8.68175 5.19253 8.96688 5.36082 9.14098L5.36322 9.14346L7.86895 11.7558C8.14872 12.0475 8.19853 12.4904 7.9906 12.837C7.35765 13.8918 7.12598 14.8328 6.79283 16.1858C6.77599 16.254 6.75892 16.3233 6.74154 16.3937C6.64277 16.7938 6.28386 17.0749 5.8718 17.0749H2.2465C1.99489 17.0749 1.79185 17.278 1.79185 17.5296V22.15C1.79185 22.6449 1.39073 23.0459 0.895882 23.0459C0.401114 23.0459 -5.72205e-06 22.6449 -5.72205e-06 22.15V17.5296C-5.72205e-06 16.2884 1.00528 15.2831 2.2465 15.2831H5.1698C5.40496 14.3406 5.65378 13.4504 6.12039 12.5213L4.07249 10.3863C4.07211 10.3859 4.07164 10.3854 4.07118 10.3849C3.21051 9.49307 3.24403 8.07401 4.12952 7.21801L4.13263 7.21498V7.21506L7.47225 4.01754C8.3641 3.15717 9.78292 3.19085 10.6388 4.07623L10.6413 4.07873L12.671 6.19492C13.1131 5.96355 13.5506 5.76139 14.0059 5.58186C14.3781 5.43517 14.7584 5.30512 15.1586 5.18698V2.2465Z" fill="#FF8800"/>
<path fill-rule="evenodd" clip-rule="evenodd" d="M7.26656 29.0525C8.38155 29.0525 9.41112 29.3878 10.2554 29.9759C10.6614 30.2586 11.2198 30.1587 11.5026 29.7527C11.7854 29.3466 11.6855 28.7883 11.2795 28.5055C10.1334 27.7073 8.74613 27.2607 7.26656 27.2607C3.3597 27.2607 0.204117 30.4163 0.204117 34.3232V38.4001H9.29242C9.78726 38.4001 10.1884 37.999 10.1884 37.5042C10.1884 37.0094 9.78726 36.6083 9.29242 36.6083H1.99589V34.3232C1.99589 31.4059 4.34932 29.0525 7.26656 29.0525Z" fill="#FF8800"/>
<path fill-rule="evenodd" clip-rule="evenodd" d="M7.26663 20.8955C9.02924 20.8955 10.4581 22.3244 10.4581 24.087C10.4581 25.8496 9.02924 27.2784 7.26663 27.2784C5.50411 27.2784 4.0752 25.8496 4.0752 24.087C4.0752 22.3244 5.50411 20.8955 7.26663 20.8955ZM12.2499 24.087C12.2499 21.3348 10.0189 19.1038 7.26663 19.1038C4.51449 19.1038 2.28342 21.3348 2.28342 24.087C2.28342 26.8392 4.51449 29.0703 7.26663 29.0703C10.0189 29.0703 12.2499 26.8392 12.2499 24.087Z" fill="#FF8800"/>
<path fill-rule="evenodd" clip-rule="evenodd" d="M38.7822 34.3232C38.7822 30.4163 35.6265 27.2607 31.7197 27.2607C30.2402 27.2607 28.8529 27.7073 27.7068 28.5055C27.3008 28.7883 27.2009 29.3466 27.4837 29.7527C27.7664 30.1587 28.3248 30.2586 28.7308 29.9759C29.5751 29.3878 30.6047 29.0525 31.7197 29.0525C34.6369 29.0525 36.9903 31.4059 36.9903 34.3232V36.6083H29.3028C28.8081 36.6083 28.4069 37.0094 28.4069 37.5042C28.4069 37.999 28.8081 38.4001 29.3028 38.4001H38.7822V34.3232Z" fill="#FF8800"/>
<path fill-rule="evenodd" clip-rule="evenodd" d="M31.7199 20.8956C33.4824 20.8956 34.9113 22.3244 34.9113 24.087C34.9113 25.8496 33.4824 27.2784 31.7199 27.2784C29.9573 27.2784 28.5285 25.8496 28.5285 24.087C28.5285 22.3244 29.9573 20.8956 31.7199 20.8956ZM36.7031 24.087C36.7031 21.3348 34.472 19.1038 31.7199 19.1038C28.9677 19.1038 26.7366 21.3348 26.7366 24.087C26.7366 26.8392 28.9677 29.0703 31.7199 29.0703C34.472 29.0703 36.7031 26.8392 36.7031 24.087Z" fill="#FF8800"/>
<path fill-rule="evenodd" clip-rule="evenodd" d="M19.3866 27.4353C22.874 27.4353 25.7236 30.27 25.7236 33.7723V36.6083H13.032V33.7723C13.032 30.2849 15.8666 27.4353 19.3689 27.4353H19.3866ZM27.5154 33.7723C27.5154 29.2775 23.8607 25.6436 19.3866 25.6436H19.3689C14.8741 25.6436 11.2402 29.2982 11.2402 33.7723V38.4001H27.5154V33.7723Z" fill="#FF8800"/>
<path fill-rule="evenodd" clip-rule="evenodd" d="M19.3689 17.8745C21.5143 17.8745 23.2534 19.6137 23.2534 21.7591C23.2534 23.9044 21.5143 25.6436 19.3689 25.6436C17.2235 25.6436 15.4844 23.9044 15.4844 21.7591C15.4844 19.6137 17.2235 17.8745 19.3689 17.8745ZM25.0452 21.7591C25.0452 18.6241 22.5038 16.0828 19.3689 16.0828C16.234 16.0828 13.6926 18.6241 13.6926 21.7591C13.6926 24.894 16.234 27.4354 19.3689 27.4354C22.5038 27.4354 25.0452 24.894 25.0452 21.7591Z" fill="#FF8800"/>
</svg>
