<svg width="37" height="35" viewBox="0 0 37 35" fill="none" xmlns="http://www.w3.org/2000/svg">
<path d="M33.6963 18.7992C32.8331 18.7992 32.0465 19.1144 31.4574 19.6289L26.0835 17.2182C26.5659 15.3942 26.1057 13.2962 24.9693 11.8369L30.3953 7.44226C33.1813 9.19678 37.0205 7.24627 36.9999 4.05915C36.9999 1.83104 35.0834 0.0182826 32.7275 0.0182826C29.5565 -0.0107018 27.4475 3.29113 28.9383 5.92229L23.4498 10.3674C20.9199 8.49507 16.9703 8.65626 14.6209 10.7042L7.05887 4.6573C7.97079 2.46125 6.14775 -0.0350378 3.6454 0.00037243C1.63539 0.00037243 6.06603e-05 1.54707 6.06603e-05 3.44815C-0.0164907 6.21548 3.35759 7.86705 5.72588 6.27687L13.2324 12.2796C12.2771 13.7364 11.9698 15.7419 12.4837 17.4353L7.55744 20.1052C6.76369 19.2626 5.60886 18.7307 4.32465 18.7307C-1.41981 18.9554 -1.41887 26.6978 4.32465 26.9221C7.05627 26.9548 9.17845 24.4404 8.54957 21.9311L13.3795 19.3133C14.2882 20.6253 15.6742 21.6159 17.3026 22.0624L17.036 28.046C15.4064 28.4279 14.1946 29.8223 14.1946 31.4801C14.4001 36.1741 21.4718 36.1725 21.6766 31.4801C21.6766 29.9492 20.6431 28.6427 19.2015 28.1509L19.4614 22.3206C21.9178 22.253 24.0616 20.9859 25.2594 19.1182L30.4326 21.4389C30.1058 23.3077 31.6907 25.0655 33.6962 25.0484C38.0789 24.8769 38.078 18.9703 33.6963 18.7992ZM4.3248 24.8713C3.1326 24.8713 2.16272 23.954 2.16272 22.8264C2.28147 20.1136 6.36856 20.1143 6.48688 22.8264C6.48688 23.954 5.51693 24.8713 4.3248 24.8713ZM32.7276 2.06914C33.8878 2.06914 34.8317 2.96191 34.8317 4.05922C34.7161 6.69926 30.7387 6.69851 30.6235 4.05922C30.6235 2.96184 31.5674 2.06914 32.7276 2.06914ZM2.16836 3.44822C2.16836 2.67788 2.83099 2.05116 3.64547 2.05116C4.82025 2.04043 5.53492 3.33044 4.86586 4.23388C4.86362 4.23634 4.86116 4.23839 4.85892 4.24085C4.83066 4.2725 4.80551 4.30552 4.78195 4.33929C3.90906 5.33604 2.17435 4.75792 2.16836 3.44822ZM17.9357 32.9676C17.0685 32.9676 16.363 32.3004 16.363 31.4802C16.4494 29.5069 19.4223 29.5075 19.5084 31.4802C19.5084 32.3004 18.8029 32.9676 17.9357 32.9676ZM19.2543 20.2731C16.5799 20.2731 14.4042 18.2152 14.4042 15.6858C14.6706 9.60023 23.839 9.60194 24.1044 15.6859C24.1043 18.2152 21.9287 20.2731 19.2543 20.2731ZM33.6963 22.9977C32.8576 23.0125 32.2878 22.1138 32.6925 21.4237C32.6995 21.4123 32.7064 21.4009 32.7131 21.3892C33.2925 20.4484 34.8189 20.821 34.8317 21.9239C34.8317 22.5159 34.3224 22.9977 33.6963 22.9977Z" fill="#FF8800"/>
</svg>
