<svg width="46" height="46" viewBox="0 0 46 46" fill="none" xmlns="http://www.w3.org/2000/svg">
<path d="M43.4092 8.54976L45.7823 6.23537C45.8507 6.17009 45.9052 6.09222 45.9426 6.00627C45.9799 5.92031 45.9995 5.82798 46 5.73462C46.0005 5.64126 45.982 5.54873 45.9457 5.46238C45.9093 5.37602 45.8556 5.29757 45.7879 5.23156C45.7202 5.16555 45.6398 5.11329 45.5512 5.07781C45.4627 5.04234 45.3678 5.02434 45.272 5.02487C45.1763 5.0254 45.0816 5.04445 44.9935 5.08091C44.9053 5.11736 44.8255 5.17051 44.7585 5.23727L42.1849 7.74727C42.1174 7.81309 42.064 7.89127 42.0276 7.97731C41.9912 8.06335 41.9727 8.15555 41.973 8.24862C41.973 8.27085 41.9443 10.5074 40.6622 11.758L39.8195 12.5797L38.694 11.482C38.5582 11.3496 38.3741 11.2752 38.1821 11.2752C37.9901 11.2752 37.806 11.3496 37.6703 11.482C37.5345 11.6143 37.4582 11.7939 37.4582 11.9811C37.4582 12.1683 37.5345 12.3479 37.6703 12.4803L42.8664 17.5471L39.5028 20.827C39.4071 20.9203 39.3402 21.0378 39.3096 21.1662C39.279 21.2946 39.2858 21.4289 39.3294 21.5537C39.373 21.6785 39.4516 21.7889 39.5562 21.8724C39.6609 21.9559 39.7874 22.0092 39.9215 22.0262C40.2629 22.0682 40.5853 22.203 40.8521 22.415C41.1188 22.627 41.3192 22.9077 41.4303 23.2253C41.5415 23.5429 41.559 23.8845 41.4808 24.2113C41.4027 24.5381 41.232 24.8369 40.9882 25.0738C40.6418 25.4108 40.1724 25.6001 39.683 25.6001C39.1937 25.6001 38.7243 25.4108 38.3778 25.0738C38.0922 24.7926 37.911 24.4265 37.863 24.0336C37.8456 23.9028 37.791 23.7794 37.7054 23.6773C37.6197 23.5752 37.5065 23.4986 37.3785 23.4561C37.2504 23.4136 37.1128 23.4069 36.9811 23.4368C36.8493 23.4667 36.7288 23.532 36.6332 23.6252L32.8691 27.2958L29.4618 23.9731C29.3662 23.8799 29.2457 23.8146 29.1139 23.7847C28.9822 23.7548 28.8445 23.7615 28.7165 23.804C28.5885 23.8466 28.4753 23.9232 28.3896 24.0253C28.304 24.1274 28.2494 24.2508 28.232 24.3816C28.1882 24.7197 28.0478 25.0391 27.827 25.3032C27.6061 25.5674 27.3137 25.7659 26.9828 25.8759C26.652 25.986 26.2962 26.0033 25.9558 25.9258C25.6154 25.8484 25.3042 25.6793 25.0575 25.4378C24.7065 25.0947 24.5094 24.6298 24.5094 24.1452C24.5094 23.6605 24.7065 23.1957 25.0575 22.8526C25.3504 22.5697 25.7317 22.3902 26.141 22.3426C26.2751 22.3256 26.4017 22.2723 26.5063 22.1888C26.611 22.1053 26.6895 21.9949 26.7331 21.8701C26.7767 21.7453 26.7836 21.6111 26.7529 21.4826C26.7223 21.3542 26.6554 21.2367 26.5598 21.1435L22.7476 17.4261L31.1645 9.21849L29.2892 15.0169C29.2363 15.1804 29.2462 15.3571 29.3171 15.514C29.388 15.6708 29.5151 15.7972 29.6745 15.8694C29.7632 15.9096 31.8617 16.8375 33.2382 15.4777C34.1535 14.5735 35.3909 12.0917 35.8732 11.0829C36.8737 11.0123 39.1502 10.6528 40.371 8.86899C40.4776 8.71327 40.5164 8.52265 40.4788 8.33906C40.4412 8.15546 40.3304 7.99395 40.1707 7.89003C40.011 7.78612 39.8155 7.74832 39.6273 7.78496C39.439 7.82159 39.2733 7.92966 39.1668 8.08538C38.0511 9.71552 35.4434 9.68825 35.4179 9.68763C35.2757 9.68498 35.1358 9.72299 35.0155 9.79697C34.8952 9.87094 34.7998 9.97765 34.7409 10.1039C34.2983 11.064 32.9805 13.7228 32.2079 14.486C31.846 14.8433 31.3051 14.8407 30.8887 14.7649L33.4351 6.89096C33.4838 6.74023 33.4793 6.57791 33.4222 6.43C33.3651 6.28207 33.2588 6.15711 33.1203 6.07512C32.9817 5.99313 32.8189 5.95885 32.658 5.97778C32.4971 5.99671 32.3474 6.06775 32.2328 6.17952L29.1032 9.23128L29.5785 7.72036L32.3237 5.04306L37.8688 3.75934C37.9993 3.72912 38.1187 3.66411 38.2135 3.57158L40.6312 1.2136C40.7003 1.14849 40.7555 1.0706 40.7934 0.984479C40.8313 0.898359 40.8513 0.805734 40.8521 0.712009C40.853 0.618283 40.8347 0.525334 40.7983 0.438584C40.7619 0.351835 40.7081 0.273023 40.6402 0.206746C40.5722 0.14047 40.4914 0.0880561 40.4024 0.0525641C40.3134 0.017072 40.2181 -0.000787799 40.122 2.66515e-05C40.0259 0.000841102 39.9309 0.0203135 39.8426 0.0573077C39.7543 0.0943019 39.6744 0.148077 39.6076 0.215495L37.3349 2.43194L31.7898 3.71593C31.6593 3.74613 31.5399 3.8111 31.445 3.9036L28.4274 6.84684C28.3438 6.9284 28.2819 7.02871 28.2472 7.13898L26.9195 11.3614L21.212 16.9267C21.0763 17.0591 21 17.2386 21 17.4258C21 17.613 21.0763 17.7926 21.212 17.9249L24.718 21.3437C24.4677 21.4835 24.2376 21.6551 24.0338 21.8541C23.7253 22.155 23.4805 22.5121 23.3135 22.9052C23.1465 23.2983 23.0606 23.7196 23.0606 24.1451C23.0606 24.5706 23.1465 24.992 23.3135 25.3851C23.4804 25.7782 23.7252 26.1354 24.0337 26.4362C24.6568 27.0439 25.5019 27.3853 26.3832 27.3853C26.8195 27.3853 27.2516 27.3015 27.6547 27.1387C28.0578 26.9759 28.4241 26.7372 28.7327 26.4364C28.9368 26.2377 29.1129 26.0133 29.2562 25.7692L32.3573 28.7932C32.4245 28.8588 32.5043 28.9108 32.5922 28.9463C32.68 28.9817 32.7741 29 32.8692 29C32.9643 29 33.0584 28.9817 33.1463 28.9463C33.2341 28.9108 33.3139 28.8588 33.3811 28.7932L36.8405 25.4197C36.9817 25.6582 37.1543 25.8775 37.3541 26.0721C37.9726 26.6706 38.8091 27.0057 39.6804 27.0041C40.5518 27.0025 41.387 26.6642 42.0031 26.0634C42.6193 25.4626 42.9661 24.6482 42.9678 23.7985C42.9694 22.9488 42.6258 22.1331 42.012 21.53C41.8125 21.3352 41.5875 21.1668 41.343 21.0292L44.4018 18.0462C44.5375 17.9138 44.6137 17.7343 44.6137 17.5471C44.6137 17.3599 44.5375 17.1803 44.4018 17.048L40.8433 13.578L41.686 12.7562C43.0924 11.3848 43.3589 9.32517 43.4092 8.54976Z" fill="#FF8800"/>
<path d="M25.4081 28.0696C25.3115 27.9721 25.1895 27.9042 25.0563 27.8735C24.923 27.8429 24.7839 27.8508 24.6549 27.8963C24.5259 27.9419 24.4123 28.0232 24.3271 28.131C24.242 28.2388 24.1887 28.3687 24.1735 28.5057C24.1368 28.8563 24.0025 29.1893 23.786 29.4661C23.5695 29.7429 23.2797 29.9522 22.9502 30.0698C22.6207 30.1874 22.2649 30.2086 21.9239 30.1307C21.583 30.0529 21.2709 29.8793 21.0237 29.63C20.7766 29.3807 20.6044 29.0659 20.5273 28.7221C20.4501 28.3782 20.471 28.0194 20.5876 27.687C20.7043 27.3547 20.9118 27.0624 21.1863 26.8441C21.4607 26.6258 21.7909 26.4903 22.1385 26.4533C22.2743 26.4379 22.4031 26.3842 22.51 26.2983C22.6169 26.2124 22.6976 26.0978 22.7427 25.9677C22.7879 25.8376 22.7958 25.6973 22.7654 25.5629C22.735 25.4285 22.6676 25.3055 22.5709 25.208L18.6112 21.2144C18.5438 21.1465 18.4637 21.0925 18.3757 21.0557C18.2876 21.0189 18.1932 21 18.0979 21C18.0025 21 17.9081 21.0189 17.8201 21.0557C17.732 21.0925 17.652 21.1465 17.5846 21.2144L14.5171 24.3082C14.3756 24.0608 14.2024 23.8334 14.0021 23.6316C13.4392 23.0647 12.6924 22.7217 11.8989 22.6657C11.1054 22.6097 10.3185 22.8443 9.68281 23.3266C9.04712 23.8088 8.60535 24.5063 8.43868 25.2907C8.27202 26.0752 8.39165 26.894 8.7756 27.5966L7.33397 28.0456C7.22096 28.0807 7.11817 28.1431 7.03453 28.2274L4.00808 31.2794C3.91287 31.3752 3.84603 31.4959 3.81508 31.628L2.49513 37.2363L0.215804 39.5348C0.147718 39.6027 0.0936 39.6834 0.0565645 39.7724C0.019529 39.8614 0.000306752 39.9569 3.64157e-06 40.0534C-0.000299469 40.1499 0.0183225 40.2455 0.0547983 40.3348C0.0912741 40.424 0.144884 40.5051 0.212543 40.5733C0.280202 40.6416 0.360575 40.6957 0.449038 40.7325C0.537502 40.7693 0.632309 40.7881 0.728005 40.7878C0.823702 40.7876 0.9184 40.7682 1.00665 40.7309C1.0949 40.6935 1.17496 40.639 1.24223 40.5703L3.66709 38.1251C3.7622 38.0291 3.82902 37.9085 3.86009 37.7765L5.1805 32.1681L7.93429 29.3911L9.87951 28.7852C9.92007 28.8113 9.96036 28.8377 10.002 28.862L6.53285 32.3608C6.41615 32.4783 6.34257 32.6323 6.32419 32.7975C6.30582 32.9627 6.34375 33.1293 6.43175 33.2699C6.51974 33.4105 6.65257 33.5167 6.80837 33.571C6.96416 33.6253 7.13366 33.6246 7.28896 33.5688L15.1823 30.7437C15.2555 31.1613 15.2503 31.6931 14.8907 32.0512C14.1059 32.8326 11.3716 34.1652 10.3843 34.6131C10.2546 34.6723 10.1449 34.7686 10.0688 34.89C9.99272 35.0114 9.95357 35.1526 9.95619 35.2962C9.95619 35.3226 9.98495 37.9611 8.30849 39.0893C8.14834 39.197 8.03721 39.3645 7.99954 39.555C7.96186 39.7454 8.00073 39.9431 8.10759 40.1046C8.21445 40.2661 8.38055 40.3782 8.56935 40.4162C8.75815 40.4542 8.95418 40.415 9.11432 40.3072C10.9489 39.0726 11.3186 36.7703 11.3911 35.7582C12.4285 35.2705 14.9808 34.0189 15.9106 33.0932C17.3091 31.7011 16.3552 29.5791 16.3134 29.489C16.2373 29.3237 16.1027 29.193 15.936 29.1224C15.7694 29.0519 15.5826 29.0466 15.4123 29.1076L9.83142 31.1048L11.8473 29.0717C11.9432 28.975 12.0103 28.8531 12.041 28.7199C12.0718 28.5868 12.0649 28.4475 12.0212 28.3181C11.9775 28.1886 11.8987 28.0741 11.7938 27.9875C11.6888 27.9009 11.562 27.8456 11.4275 27.828C11.0234 27.7794 10.6469 27.5961 10.3578 27.3072C10.1859 27.1339 10.0496 26.928 9.95653 26.7015C9.86351 26.475 9.81563 26.2323 9.81563 25.9871C9.81563 25.7419 9.86351 25.4992 9.95653 25.2727C10.0496 25.0462 10.1859 24.8404 10.3578 24.667C10.5297 24.4937 10.7337 24.3561 10.9583 24.2623C11.1829 24.1685 11.4236 24.1202 11.6667 24.1202C11.9098 24.1202 12.1505 24.1685 12.375 24.2623C12.5996 24.3561 12.8037 24.4937 12.9756 24.667C13.2619 24.9586 13.4436 25.3383 13.4918 25.7459C13.5092 25.8815 13.564 26.0095 13.6498 26.1154C13.7357 26.2212 13.8493 26.3007 13.9777 26.3448C14.106 26.3889 14.2441 26.3958 14.3762 26.3648C14.5083 26.3338 14.6291 26.2661 14.725 26.1694L18.0979 22.7678L20.7121 25.4044C20.4548 25.5503 20.2186 25.7311 20.0101 25.9418C19.7014 26.2507 19.4563 26.618 19.2888 27.0227C19.1213 27.4273 19.0346 27.8614 19.0338 28.2999C19.0329 28.7384 19.118 29.1728 19.284 29.5781C19.45 29.9834 19.6937 30.3516 20.0011 30.6617C20.3086 30.9718 20.6737 31.2176 21.0756 31.385C21.4774 31.5524 21.9081 31.6382 22.3429 31.6374C22.7777 31.6365 23.208 31.5491 23.6093 31.3801C24.0105 31.2112 24.3747 30.964 24.681 30.6527C24.8899 30.4424 25.0691 30.2042 25.2138 29.9447L28.2477 33.0046L25.6936 35.5808C25.5521 35.3334 25.3789 35.1059 25.1786 34.9041C24.8719 34.5948 24.5077 34.3494 24.107 34.182C23.7063 34.0146 23.2768 33.9285 22.8431 33.9285C22.4093 33.9285 21.9799 34.0146 21.5791 34.182C21.1784 34.3495 20.8143 34.5948 20.5076 34.9042C20.2009 35.2135 19.9576 35.5807 19.7917 35.9849C19.6257 36.389 19.5403 36.8222 19.5403 37.2596C19.5403 37.6971 19.6257 38.1303 19.7917 38.5344C19.9577 38.9386 20.201 39.3058 20.5077 39.6151C20.7077 39.8171 20.9333 39.9917 21.1785 40.1344L18.2226 43.1156L12.7985 37.6451C12.7315 37.5754 12.6514 37.5199 12.563 37.4818C12.4745 37.4436 12.3794 37.4236 12.2832 37.4229C12.187 37.4221 12.0916 37.4407 12.0025 37.4775C11.9135 37.5143 11.8326 37.5685 11.7645 37.6371C11.6965 37.7057 11.6426 37.7873 11.6061 37.8771C11.5696 37.9668 11.5511 38.063 11.5518 38.1601C11.5524 38.2571 11.5722 38.3531 11.61 38.4423C11.6478 38.5316 11.7027 38.6124 11.7717 38.68L12.8814 39.7991L12.0856 40.6016C10.7886 41.9095 8.49813 41.9273 8.47671 41.9273H8.47435C8.28186 41.9273 8.09726 42.0044 7.96114 42.1417L5.38021 44.7444C5.31156 44.8121 5.25691 44.8928 5.21941 44.982C5.18192 45.0711 5.16234 45.1669 5.16179 45.2637C5.16124 45.3606 5.17975 45.4565 5.21623 45.5461C5.25272 45.6357 5.30646 45.717 5.37434 45.7855C5.44223 45.854 5.5229 45.9082 5.61171 45.945C5.70051 45.9818 5.79567 46.0005 5.89167 46C5.98768 45.9995 6.08263 45.9797 6.17103 45.9419C6.25942 45.9041 6.3395 45.849 6.40663 45.7798L8.78649 43.3798C9.58371 43.3288 11.7017 43.0595 13.1119 41.6371L13.9078 40.8345L17.7091 44.6683C17.7765 44.7363 17.8565 44.7903 17.9446 44.8271C18.0326 44.8639 18.127 44.8828 18.2224 44.8828C18.3177 44.8828 18.4121 44.8639 18.5002 44.8271C18.5882 44.7903 18.6683 44.7363 18.7357 44.6683L23.0235 40.3436C23.1194 40.2469 23.1865 40.1251 23.2172 39.9918C23.248 39.8586 23.2411 39.7194 23.1973 39.5899C23.1536 39.4605 23.0748 39.346 22.9699 39.2594C22.8649 39.1728 22.738 39.1175 22.6035 39.1C22.2594 39.057 21.9342 38.9174 21.6649 38.6972C21.3957 38.4769 21.1931 38.1848 21.0804 37.8541C20.9677 37.5234 20.9494 37.1674 21.0275 36.8267C21.1055 36.486 21.2769 36.1743 21.5221 35.9271C21.7673 35.6798 22.0764 35.507 22.4142 35.4282C22.752 35.3495 23.1049 35.3681 23.4328 35.4818C23.7607 35.5955 24.0503 35.7997 24.2687 36.0714C24.4871 36.343 24.6254 36.671 24.668 37.018C24.6854 37.1536 24.7402 37.2816 24.8261 37.3875C24.912 37.4933 25.0255 37.5728 25.1539 37.6169C25.2823 37.6609 25.4203 37.6679 25.5524 37.6369C25.6845 37.6059 25.8053 37.5382 25.9012 37.4414L29.7874 33.522C29.8548 33.454 29.9083 33.3733 29.9447 33.2844C29.9812 33.1956 30 33.1004 30 33.0043C30 32.9081 29.9812 32.8129 29.9447 32.7241C29.9083 32.6353 29.8548 32.5546 29.7874 32.4866L25.4081 28.0696Z" fill="#FF8800"/>
</svg>
